<svg xmlns="http://www.w3.org/2000/svg" width="98" height="98" fill="none" xmlns:v="https://vecta.io/nano"><g clip-path="url(#A)"><path d="M53.206 7.636L8.33.817C6.248.5 4.124 1.062 2.532 2.41.94 3.798 0 5.798 0 7.88v86.036C0 96.163 1.838 98 4.083 98h13.27V76.563a7.13 7.13 0 0 1 7.146-7.146h10.208a7.13 7.13 0 0 1 7.146 7.146V98h17.354V14.7a7.15 7.15 0 0 0-6.002-7.064zM22.458 60.23h-6.125c-1.69 0-3.063-1.372-3.063-3.062s1.372-3.062 3.063-3.062h6.125c1.69 0 3.063 1.372 3.063 3.063s-1.372 3.063-3.062 3.063zm0-12.25h-6.125c-1.69 0-3.063-1.372-3.063-3.062s1.372-3.062 3.063-3.062h6.125c1.69 0 3.063 1.372 3.063 3.063s-1.372 3.063-3.062 3.063zm0-12.25h-6.125c-1.69 0-3.063-1.372-3.063-3.062s1.372-3.062 3.063-3.062h6.125c1.69 0 3.063 1.372 3.063 3.063s-1.372 3.063-3.062 3.063zm0-12.25h-6.125c-1.69 0-3.063-1.372-3.063-3.062s1.372-3.062 3.063-3.062h6.125c1.69 0 3.063 1.372 3.063 3.063s-1.372 3.063-3.062 3.063zm20.417 36.75H36.75c-1.7 0-3.062-1.372-3.062-3.062s1.372-3.062 3.063-3.062h6.125c1.69 0 3.063 1.372 3.063 3.063s-1.372 3.063-3.062 3.063zm0-12.25H36.75c-1.7 0-3.062-1.372-3.062-3.062s1.372-3.062 3.063-3.062h6.125c1.69 0 3.063 1.372 3.063 3.063s-1.372 3.063-3.062 3.063zm0-12.25H36.75c-1.7 0-3.062-1.372-3.062-3.062s1.372-3.062 3.063-3.062h6.125c1.69 0 3.063 1.372 3.063 3.063s-1.372 3.063-3.062 3.063zm0-12.25H36.75c-1.7 0-3.062-1.372-3.062-3.062s1.372-3.062 3.063-3.062h6.125c1.69 0 3.063 1.372 3.063 3.063s-1.372 3.063-3.062 3.063z" fill="#ff725e"/><path d="M92.365 44.272l-29.073-6.088V98h27.563C94.795 98 98 94.795 98 90.854v-39.6c0-3.373-2.3-6.243-5.635-6.982zm-9.677 41.48h-6.125c-1.7 0-3.062-1.372-3.062-3.062s1.372-3.062 3.063-3.062h6.125c1.69 0 3.063 1.372 3.063 3.063s-1.372 3.063-3.062 3.063zm0-12.25h-6.125c-1.7 0-3.062-1.372-3.062-3.062s1.372-3.062 3.063-3.062h6.125c1.69 0 3.063 1.372 3.063 3.063S84.378 73.5 82.688 73.5zm0-12.25h-6.125c-1.7 0-3.062-1.372-3.062-3.062s1.372-3.062 3.063-3.062h6.125c1.69 0 3.063 1.372 3.063 3.063s-1.372 3.063-3.062 3.063z" fill="#455a64"/></g><defs><clipPath id="A"><path fill="#fff" d="M0 0h98v98H0z"/></clipPath></defs></svg>