<svg id="Layer_1" data-name="Layer 1" xmlns="http://www.w3.org/2000/svg" viewBox="0 0 980 980"><defs><style>.cls-1{fill:#9cdcf5;}.cls-2{fill:#e2f4fc;}.cls-3{fill:#698958;}.cls-4{fill:#ebc659;}.cls-5{fill:#e6b344;}.cls-6{fill:#607f4c;}.cls-7{fill:#f0b83f;}.cls-8{fill:#f5cd54;}.cls-9{fill:#fbb217;}.cls-10{fill:#ffcb2b;}.cls-11{fill:#9bc967;}.cls-12{fill:#8ac249;}.cls-13{fill:#86b842;}.cls-14{fill:#c49a6c;}.cls-15{fill:#4d7a39;}.cls-16{fill:#72a341;}.cls-17{fill:#7ab342;}</style></defs><path class="cls-1" d="M-91.8,152.91c30-2.73,58.62,20.81,62.48,50.64,14.18-15.2,43.62-10.13,51.88,8.95,35.38-29.43,86.38-38.82,129.92-23.91s78.07,53.59,88,98.53c31.16-37.36,97.32-40.38,130.94-5.2,19.35-26.19,61.55-31.33,86.62-10.55a150.41,150.41,0,0,1,208.88-24.23c24.68-20,69.31-9.37,84.87,18.3,26.49-19.68,65.68-20.17,92.65-1.15,23.47-51.43,86.81-80.91,141.27-65.73,3-14.24,15.08-28.5,29-32.85a42.15,42.15,0,0,1,40.6,9.34c4-38.33,44.91-68.48,82.7-60.93a218.79,218.79,0,0,1,52-70.95V0H-210V25.57a141.68,141.68,0,0,1,67,29.68A141.87,141.87,0,0,1-91.8,152.91Z"/><path class="cls-2" d="M1138,114.12c-37.79-7.55-78.71,22.6-82.7,60.93a42.15,42.15,0,0,0-40.6-9.34c-13.9,4.35-25.95,18.61-29,32.85-54.46-15.18-117.8,14.3-141.27,65.73-27-19-66.16-18.53-92.65,1.15-15.56-27.67-60.19-38.26-84.87-18.3A150.41,150.41,0,0,0,458,271.37c-25.07-20.78-67.27-15.64-86.62,10.55-33.62-35.18-99.78-32.16-130.94,5.2-9.9-44.94-44.44-83.62-88-98.53S57.94,183.07,22.56,212.5c-8.26-19.08-37.7-24.15-51.88-8.95-3.86-29.83-32.52-53.37-62.48-50.64A141.87,141.87,0,0,0-143,55.25a141.68,141.68,0,0,0-67-29.68V980H1190V43.17A218.79,218.79,0,0,0,1138,114.12Z"/><path class="cls-3" d="M-210,385.17c2.9-8.12,17-10.53,25.37-8.47s14.9,9,18.64,16.74,5.1,16.45,6.43,25a23.28,23.28,0,0,1,21.49-7.08,23.28,23.28,0,0,1,17,14.92A15.22,15.22,0,0,1-106,418.71a15.21,15.21,0,0,1,12.4,11.4c2.7-16.21,17.94-29.41,34.37-29.76S-27,412.52-23.62,428.6c10-10.66,31.22-7.78,39.33,4.4a28,28,0,0,1,26.46-19,28,28,0,0,1,25.68,20.05c18.06-16.57,49.51-15.34,66.24,2.59,10.8-17.67,41.65-16.51,51.09,1.92a24.62,24.62,0,0,1,44.1-9.36,10.11,10.11,0,0,1,18.45-7.87c-2.06-14.81,8.08-30.37,22.47-34.45s31.19,3.82,37.22,17.51a14.46,14.46,0,0,1,25.08-12.06c-10.67-12.48-8.09-33.93,5.23-43.52s34.48-5.25,42.94,8.83c-4.34-7.27-1.42-17.89,6-21.93s17.94-.69,21.67,6.91c-7.09-17.73,7.07-40.35,26.12-41.72s36.29,19,31.82,37.55c.74-1,5.1-.36,5.84-1.36,8.79-13.21,27.1-19.16,42-13.64s24.87,22,22.91,37.73a15.83,15.83,0,0,1,26.59,12.53c8.94-9.7,27.51-7,33.28,4.9,0-6.1,9.41-12.54,15.48-12s10.92,7,9.81,13c5.15-10.11,24.1-5.55,24.09,5.79,6.16-12.34,27.22-12.44,33.49-.15a32.63,32.63,0,0,1,61-6.81c-4.09-14.2,2-30.73,14.37-38.85s29.93-7.2,41.36,2.18c-10.51-9.74-11.55-27.95-2.23-38.83s27.48-12.64,38.71-3.75,13.7,27,5.25,38.54c7.2-7,19.67-7.75,27.63-1.59s10.39,18.41,5.4,27.14a21.36,21.36,0,0,1,35.44,17.26c5.75-11.07,25.47-14.18,35.06-6.21a24.05,24.05,0,0,1,44.36-11.78c-4.15-12.48,2.25-27.54,14.11-33.22s27.61-1.2,34.72,9.85c-8.09-20.75,7.06-47.07,29.07-50.5s44.44,17,43,39.27c6.78-10.52,25-10.3,31.48.37C1152.37,307.1,1190,298.1,1190,298.1V458.78L41.42,527.54-210,463Z"/><path class="cls-4" d="M865.74,566.13c24.15-16,45.34-35.85,60.4-59.64A844.81,844.81,0,0,0,701,417,610.46,610.46,0,0,1,865.74,566.13Z"/><path class="cls-4" d="M297.12,420q-21.71,5.53-43.1,12.22a1275.49,1275.49,0,0,0,85,198.67c26.32,2.46,52.7,3.73,79.13,4.16C402.33,552.91,359.52,475.8,297.12,420Z"/><path class="cls-5" d="M197.88,451.93l65.43,167.51A570.15,570.15,0,0,0,320.4,629q9.32,1.08,18.64,1.95a1275.49,1275.49,0,0,1-85-198.67Q225.61,441.1,197.88,451.93Z"/><path class="cls-5" d="M354.13,407.53q-28.71,5.27-57,12.49c62.4,55.78,105.21,132.89,121.05,215.05,22.72.37,45.47.13,68.22-.53C473.57,545.81,425.16,462.27,354.13,407.53Z"/><path class="cls-4" d="M56,523.41c62.88,47.71,132,79.48,207.31,96L197.88,451.93A839.1,839.1,0,0,0,56,523.41Z"/><path class="cls-4" d="M425.93,397.53q-36.09,3.45-71.8,10c71,54.74,119.44,138.28,132.26,227,32.15-.93,64.31-2.67,96.43-4.63C569,534.27,509.09,446.49,425.93,397.53Z"/><path class="cls-4" d="M613.35,400.87A837.4,837.4,0,0,0,521.78,394c73.45,55.91,125.06,139.91,142.53,230.52,40.88-3.37,81.54-8.7,120.64-20.74q4.49-1.4,9-2.92A574.4,574.4,0,0,0,613.35,400.87Z"/><path class="cls-5" d="M701,417a848.75,848.75,0,0,0-87.63-16.17A574.4,574.4,0,0,1,793.94,600.81c24.81-8.39,49.56-19.91,71.8-34.68A610.46,610.46,0,0,0,701,417Z"/><path class="cls-5" d="M521.78,394q-16.53-.34-33.06,0-31.46.61-62.79,3.61c83.16,49,143,136.74,156.89,232.38q16.3-1,32.6-2c16.28-1,32.6-2.06,48.89-3.41C646.84,533.86,595.23,449.86,521.78,394Z"/><path class="cls-6" d="M251.37,618.67A38.07,38.07,0,0,1,298,571.21c-.22-1.46,1.52-4.87,1.3-6.33a20.47,20.47,0,0,1,33.88-9c-5.27-13-.45-28.15,12.45-33.57s29.57,1.29,35.13,14.14c1.35-8.31,11.1-15.83,19.51-16.12a18.93,18.93,0,0,1,18.47,14.18,23,23,0,0,1,43.05-12.76c8.89-11.94,24.53-21.92,39.25-24.15A57.91,57.91,0,0,1,543.36,508a10.08,10.08,0,1,1,19.84-3.47c-.77-8.1-2.41-15.09.48-22.69s9-14.34,16.85-16.33,17.32,1.87,20.16,9.5c.08-10.88,10.45-19.92,21.3-20.62s21.3,5.58,27.88,14.24,9.79,19.4,11.72,30.1c-2.4-12,7.12-26.59,17.11-33.7a32.78,32.78,0,0,1,34.77-1.49c24.27-28.92,64.8-19.42,81.78-11.4L320.11,734.4Z"/><path class="cls-7" d="M268.07,623.34C300,601.58,337.53,588.45,376,584.61q43,21,84.66,44.7A251.55,251.55,0,0,0,348.53,665.8c-38.75,24-70.41,59.11-91.07,99.72l-85.41,1.09C184.61,709.14,219.4,656.52,268.07,623.34Z"/><path class="cls-8" d="M348.53,665.8a251.55,251.55,0,0,1,112.09-36.49,1454,1454,0,0,1,192.64,131.2l-395.8,5C278.12,724.91,309.78,689.84,348.53,665.8Z"/><path class="cls-8" d="M289,545.56q44.07,18.12,86.92,39.05c-38.43,3.84-76,17-107.89,38.73-48.67,33.18-83.46,85.8-96,143.27l-178.2,2.26C43.68,649.82,161,561.23,289,545.56Z"/><path class="cls-7" d="M145.83,495A1501.77,1501.77,0,0,1,289,545.56C161,561.23,43.68,649.82-6.15,768.87l-155.73,2C-112,636.73,7.14,530,145.83,495Z"/><path class="cls-7" d="M-100.86,443.86q55.46,6.6,110.35,17.43C-86.39,491.17-168,564.08-210,655.24V505.79A321.22,321.22,0,0,1-100.86,443.86Z"/><path class="cls-8" d="M9.49,461.29Q78.38,474.88,145.83,495C7.14,530-112,636.73-161.88,770.84l-48.12.61V655.24C-168,564.08-86.39,491.17,9.49,461.29Z"/><path class="cls-9" d="M626.19,597.41c-37.66-25.66-81.91-41.15-127.24-45.68q-50.76,24.76-99.84,52.72a296.74,296.74,0,0,1,132.2,43c45.69,28.35,83,69.71,107.4,117.61l100.73,1.27C724.62,698.59,683.6,636.55,626.19,597.41Z"/><path class="cls-10" d="M531.31,647.49a296.74,296.74,0,0,0-132.2-43A1715.92,1715.92,0,0,0,171.92,759.18l466.79,5.92C614.34,717.2,577,675.84,531.31,647.49Z"/><path class="cls-10" d="M601.46,505.68q-52,21.39-102.51,46.05c45.33,4.53,89.58,20,127.24,45.68,57.41,39.14,98.43,101.18,113.25,169L949.6,769C890.83,628.64,752.49,524.17,601.46,505.68Z"/><path class="cls-9" d="M770.35,446a1767.86,1767.86,0,0,0-168.89,59.67c151,18.49,289.37,123,348.14,263.36l183.65,2.32C1074.45,613.2,933.92,487.34,770.35,446Z"/><path class="cls-9" d="M1061.29,385.75q-65.41,7.78-130.14,20.55C1044.23,441.54,1140.51,527.53,1190,635V458.78A378.79,378.79,0,0,0,1061.29,385.75Z"/><path class="cls-10" d="M931.15,406.3q-81.25,16-160.8,39.71c163.57,41.33,304.1,167.19,362.9,325.35l56.75.72V635C1140.51,527.53,1044.23,441.54,931.15,406.3Z"/><path class="cls-11" d="M511,814c13,2,25,4,38,3,3,0,5,3,8,4,53,1.75,105,3.15,157.3.07Q704.4,813.46,694,806c-38.86-28.63-79.11-49.83-121.08-67.07-15.78-1.25-31.75-3.19-47.92-5.93-248-42-496-88-735-62V792c15.66-1.46,31.46-2.44,47-5C66,751,283,777,511,814Z"/><path class="cls-12" d="M557,821c-3-1-5-4-8-4-13,1-25-1-38-3-228-37-445-63-674-27-15.54,2.59-31.34,3.57-47,5V958.44A110.49,110.49,0,0,0-199,954c35-17,71-26,110-34,120-25,232-35,350-44,152-11,303-6,456,7,24.91,2.16,49.75,4.31,74.55,6.16a782.69,782.69,0,0,0-77.25-68.09C662,824.15,610,822.75,557,821Z"/><path class="cls-13" d="M261,876c-118,9-230,19-350,44-39,8-75,17-110,34a110.49,110.49,0,0,1-11,4.44V980H870.05a186.4,186.4,0,0,0-23-31c-18.34-21.07-36.53-40.92-55.45-59.84-24.8-1.85-49.64-4-74.55-6.16C564,870,413,865,261,876Z"/><path class="cls-14" d="M947,848c-19-15-35-29-54-40-55-31.22-110.08-58.37-167.89-76.5-49.11,8-99.61,11.59-152.19,7.43,42,17.24,82.22,38.44,121.08,67.07,60,43,106,89,153,143a186.4,186.4,0,0,1,23,31h210.58c-2.79-3.38-5.63-6.73-8.63-10C1032,926,995,885,947,848Z"/><path class="cls-12" d="M1183,717c-109.32,17.63-204.66,53.14-311.35,79.11Q882.33,801.95,893,808c19,11,35,25,54,40a619.56,619.56,0,0,1,49.32,42.53A703.33,703.33,0,0,0,1097,874c33.6-8,62.73-24.32,93-40.26V715.8C1187.67,716.19,1185.34,716.58,1183,717Z"/><path class="cls-11" d="M1190,715.8V631c-155.71,0-302.67,74.13-464.89,100.5,50.34,15.78,98.57,38.42,146.54,64.61,106.69-26,202-61.48,311.35-79.11C1185.34,716.58,1187.67,716.19,1190,715.8Z"/><path class="cls-15" d="M421.23,845.4a38.07,38.07,0,0,1,64.35-17c.56-1.37,3.79-3.41,4.35-4.78a20.46,20.46,0,0,1,33.71,9.6c2.09-13.84,14-24.44,27.85-22.5s24.76,16.2,23,30.09c5.4-6.46,17.63-7.94,25-3.9a18.93,18.93,0,0,1,8.64,21.63,23,23,0,0,1,43.53,11c13.74-5.73,32.29-6.32,46.08-.72a57.89,57.89,0,0,1,31.06,30.52,10.08,10.08,0,1,1,18.83,7.15c3.48-7.36,5.64-14.2,12-19.26s15-7.75,22.83-5.44,13.93,10.46,12.47,18.47c5.63-9.31,19.16-11.79,28.85-6.85s15.46,15.68,16.7,26.48-1.5,21.69-5.3,31.87c4.07-11.57,19.7-19.23,31.92-20.23A32.75,32.75,0,0,1,897.75,948c35.63-12.47,65.63,16.39,76.13,32H421.23Z"/><path class="cls-15" d="M227.59,799.14a63.75,63.75,0,0,0-70.26-42.24q-1.47-5.76-3-11.54c-5.35-3-13.8-3.31-15.23,2.64a16.26,16.26,0,0,0-25.07-13.37C116.55,720.35,106.94,705,93,701s-31.55,4.62-37,18a23.34,23.34,0,0,0-22.59-17.38,23.33,23.33,0,0,0-21.64,18.55,14.91,14.91,0,0,0-17.11-5.63,14.62,14.62,0,0,0-9.36,15.16c-12.85-12.44-34.65-14.26-49.38-4.12a12.85,12.85,0,0,0-10.56-10.9c-5.38-.8-10.74,1.5-12.92,6.48,5.65-10.72,2.89-25.19-6.33-33.07s-23.93-8.37-33.65-1.13c2.33-5.16-.76-12-6.17-13.7s-12.83,2.16-13.82,7.74c-.14-12.17-9.88-23.52-21.88-25.51s-24.88,5.61-28.94,17.08C-200,664-210,667-210,667V788.33Z"/><path class="cls-16" d="M-210,834.1V980h42.72C-104.06,924.85-38.66,872.92,39,837c4.25-2.13,7.51-5.76,11.17-8.76C-36.49,823.67-122.68,824.2-210,834.1Z"/><path class="cls-17" d="M185.36,772.67C49.05,751.48-89.64,741.93-210,752.15v82c87.32-9.9,173.51-10.43,260.17-5.86A25.65,25.65,0,0,1,55,825,1000.56,1000.56,0,0,1,185.36,772.67Z"/><path class="cls-14" d="M185.36,772.67A1000.56,1000.56,0,0,0,55,825c-6,3-10,9-16,12-77.66,35.92-143.06,87.85-206.28,143h328c32.16-18.36,65.75-35.23,98.29-54,28-16,54-29,82-43,30-14,58-27,88-40,9.83-4.21,19.41-8.3,28.93-12.31A2542.57,2542.57,0,0,0,185.36,772.67Z"/><path class="cls-16" d="M259,926c-32.54,18.77-66.13,35.64-98.29,54H536c-68.58-32.49-136.28-64.29-207.14-90.92C305.37,900.86,282.91,912.34,259,926Z"/><path class="cls-17" d="M457.93,830.69c-9.52,4-19.1,8.1-28.93,12.31-30,13-58,26-88,40q-6.13,3.06-12.14,6.08C399.72,915.71,467.42,947.51,536,980H815C761.32,932.6,625,876.08,457.93,830.69Z"/><path class="cls-2" d="M357.41,68.43H112.29a20.69,20.69,0,0,1,12.5-12.6,19.29,19.29,0,0,1,17,2.44,8.27,8.27,0,0,1,13.64-7.46c3.71-18.64,19.8-34.17,38.57-37.21s38.93,6.6,48.34,23.12c5.47-8,17.09-12,26.54-9.66a24.65,24.65,0,0,1,18.11,20.61A22,22,0,0,1,326,56.11C337.74,51.86,350.9,57.77,357.41,68.43Z"/><path class="cls-2" d="M349.11,236H594.23a20.65,20.65,0,0,0-12.5-12.59,19.32,19.32,0,0,0-17,2.43,8.27,8.27,0,0,0-13.64-7.46c-3.71-18.64-19.8-34.17-38.57-37.21s-38.93,6.61-48.34,23.12c-5.47-8-17.09-12-26.54-9.65a24.64,24.64,0,0,0-18.11,20.6,22,22,0,0,0-39.06,8.44C368.78,219.43,355.62,225.34,349.11,236Z"/><path class="cls-2" d="M697,152.33H471.67c9.11-9.11,26.13-13,37.67-7.22a32.61,32.61,0,0,1,55.45-18.38c6.13-6.36,18.65-3.83,21.83,4.41,8.5-15.48,27.06-24.76,44.54-22.26s32.7,16.62,36.51,33.86C677.44,138,691.35,143.07,697,152.33Z"/><path class="cls-2" d="M980.18,93H744c17.43-12.37,38.19-19.59,58.8-14a34.25,34.25,0,0,1,56,3.16c5.57-14,23.45-20.45,37.67-15.32,8.8-11.56,20.91-21,35-24.62s30.11-.81,40.83,9S987,80.17,980.18,93Z"/><path class="cls-2" d="M-156.33,95.63h304.7c-22.49-15.95-49.27-25.27-75.87-18A44.94,44.94,0,0,0,35.31,60.84,45,45,0,0,0,.23,81.69C-6.95,63.56-30,55.3-48.36,61.92-59.72,47-75.34,34.84-93.49,30.16s-38.84-1.05-52.67,11.6S-165.13,79.09-156.33,95.63Z"/></svg>