<svg xmlns="http://www.w3.org/2000/svg" xmlns:xlink="http://www.w3.org/1999/xlink" viewBox="0 0 980 980"><defs><style>.cls-1,.cls-38{fill:none;}.cls-2{isolation:isolate;}.cls-3{clip-path:url(#clip-path);}.cls-4{fill:#c3c5c1;}.cls-5{fill:#c0e7f7;}.cls-6{fill:#c39e6c;}.cls-7{fill:#69b26d;}.cls-8{fill:#589f5d;}.cls-9{fill:#74c044;}.cls-10{fill:#f4faf6;}.cls-11{fill:#bac855;}.cls-12{fill:#93b2b6;}.cls-13{fill:#75817e;}.cls-14,.cls-19{fill:#825735;}.cls-15{fill:#4eb3b0;}.cls-16{fill:#a4c7b1;}.cls-17{fill:#9c7a53;}.cls-18{fill:#4b6c7c;}.cls-19,.cls-25{opacity:0.48;}.cls-20{fill:#592722;}.cls-21{fill:#f7ca79;}.cls-22,.cls-25{fill:#724f33;}.cls-23{fill:#ffe7ab;mix-blend-mode:multiply;}.cls-24{fill:#f15722;}.cls-26{fill:#66716f;}.cls-27{fill:#f9d753;}.cls-28{fill:#ef3b24;}.cls-29{fill:#64431c;}.cls-30{fill:#a3703b;}.cls-31{fill:#c3301b;}.cls-32{fill:#ccc49f;}.cls-33{fill:#520000;}.cls-34{fill:#9e6e20;}.cls-35{fill:#daac66;}.cls-36{fill:#a2a2a1;}.cls-37{fill:#6d6e71;}.cls-38{stroke:#bcbec0;stroke-miterlimit:10;stroke-width:3px;}</style><clipPath id="clip-path"><rect class="cls-1" x="-210" width="1400" height="980"/></clipPath></defs><g class="cls-2"><g id="Layer_1" data-name="Layer 1"><g class="cls-3"><rect class="cls-4" x="-210" y="801.23" width="1400" height="180.58"/><rect class="cls-5" x="-210" y="1.93" width="1400" height="781.72"/><path class="cls-5" d="M1190,781.39H-188.9c-6.06,0-12.69-.76-18.72,0a18.9,18.9,0,0,1-2.38,0l2.26,2.27V13.76c0-3,.91-7.64,0-10.51a5.3,5.3,0,0,1,0-1.32L-210,4.2H1168.9c6.06,0,12.69.76,18.72,0a18.9,18.9,0,0,1,2.38,0l-2.26-2.27v749.8c0,10-1,20.65,0,30.61,0,.43,0,.88,0,1.32,0,2.91,4.52,2.91,4.52,0V33.86c0-10,1-20.65,0-30.61,0-.43,0-.88,0-1.32A2.29,2.29,0,0,0,1190-.33H-153.17c-18.14,0-36.31-.24-54.45,0-.79,0-1.59,0-2.38,0a2.3,2.3,0,0,0-2.26,2.26v749.8c0,10-1.05,20.65,0,30.61,0,.43,0,.88,0,1.32a2.29,2.29,0,0,0,2.26,2.26H1133.17c18.14,0,36.31.24,54.45,0H1190C1192.91,785.92,1192.92,781.39,1190,781.39Z"/><rect class="cls-6" x="552.01" y="414.04" width="15.08" height="287.81"/><ellipse class="cls-7" cx="559.55" cy="422.72" rx="86.08" ry="135.22"/><path class="cls-8" d="M537,319.53c-17.93,0-34.47,9.37-47.74,25.14-9.94,22.05-15.78,49-15.78,78.05C473.47,497.41,512,558,559.55,558a56,56,0,0,0,10.69-1c27.13-19.75,46-62.89,46-112.95C616.19,375.24,580.73,319.53,537,319.53Z"/><path class="cls-7" d="M565.5,376.85c0,8.39-2.66,15.2-6,15.2s-6-6.81-6-15.2,2.67-15.2,6-15.2S565.5,368.45,565.5,376.85Z"/><ellipse class="cls-7" cx="505.8" cy="398.84" rx="5.96" ry="15.2"/><path class="cls-7" d="M523.67,500.27c0,8.4-2.67,15.2-6,15.2s-6-6.8-6-15.2,2.67-15.2,6-15.2S523.67,491.88,523.67,500.27Z"/><ellipse class="cls-7" cx="586.18" cy="469.14" rx="5.96" ry="15.2"/><ellipse class="cls-7" cx="544.83" cy="447.98" rx="5.96" ry="15.2"/><rect class="cls-9" x="-210" y="661.38" width="1400" height="149.55"/><path class="cls-10" d="M995.4,170.85c-6.06-6.39-11.24-8-15.37-7.45C977.94,155.72,969.3,150,959,150s-18.88,5.68-21,13.28C918,159.86,912.79,184,912.79,184h99C1016.28,166.31,995.4,170.85,995.4,170.85Z"/><path class="cls-11" d="M225.2,725.22H896a26.74,26.74,0,0,0-42.38-13.88,60.48,60.48,0,0,0-74.87-36.58,67.74,67.74,0,0,0,.58-8.83,66.44,66.44,0,0,0-116.43-43.76,51.16,51.16,0,0,0-50.82-22.53,60.41,60.41,0,0,0-119.22-13.58,60.42,60.42,0,0,0-88,7.33A26.76,26.76,0,1,0,358.32,617,51.13,51.13,0,0,0,320,644.19a60.44,60.44,0,0,0-84.41,31,26.76,26.76,0,0,0-10.42,50Zm285.9-80.55c1,.9,2,1.77,3.07,2.6h-3.74C510.67,646.41,510.89,645.55,511.1,644.67ZM392.37,623l-.12,1-.82-.5C391.75,623.37,392.06,623.2,392.37,623Z"/><polygon class="cls-12" points="121 177.35 -141.87 400.97 -141.87 725.14 383.86 725.14 383.86 400.97 121 177.35"/><rect class="cls-13" x="-152.24" y="664.87" width="546.48" height="60.26"/><rect class="cls-14" x="58.65" y="450.23" width="124.69" height="214.64"/><rect class="cls-15" x="226.44" y="461.77" width="85.73" height="107.55"/><polygon class="cls-16" points="226.44 487 312.16 540.76 312.16 560.73 226.44 493.23 226.44 487"/><polygon class="cls-16" points="226.44 498.12 312.16 566 312.16 569.32 306.61 569.32 226.44 503.66 226.44 498.12"/><path class="cls-17" d="M315.28,572.44h-92V458.65h92Zm-85.73-6.24H309V464.89H229.55Z"/><rect class="cls-15" x="-70.17" y="461.77" width="85.73" height="107.55"/><polygon class="cls-16" points="-70.17 487 15.55 540.76 15.55 560.73 -70.17 493.23 -70.17 487"/><polygon class="cls-16" points="-70.17 498.12 15.55 566 15.55 569.32 10.01 569.32 -70.17 503.66 -70.17 498.12"/><path class="cls-17" d="M18.67,572.44h-92V458.65h92ZM-67,566.2H12.44V464.89H-67Z"/><polygon class="cls-12" points="-141.87 450.23 135.64 222.57 383.86 435.55 393.89 401.91 121 177.35 -141.87 400.97 -141.87 450.23"/><polygon class="cls-18" points="350.58 348.13 350.58 348.13 359.41 345.29 281.83 286.37 291.21 284.5 213.39 224.88 220.24 221.84 121 141.87 21.75 221.84 28.6 224.88 -49.22 284.5 -39.84 286.37 -117.42 345.29 -108.59 348.13 -108.59 348.13 -195.6 415.91 -156.24 435.55 121 196.12 398.23 435.55 437.59 415.91 350.58 348.13"/><rect class="cls-19" x="58.65" y="450.23" width="8.21" height="214.64"/><path class="cls-20" d="M174.39,576.42a4,4,0,1,1-4-4A4,4,0,0,1,174.39,576.42Z"/><ellipse class="cls-7" cx="1049.4" cy="360.62" rx="101.61" ry="159.62"/><path class="cls-8" d="M1022.77,238.82c-21.17,0-40.68,11.05-56.35,29.67-11.73,26-18.63,57.81-18.63,92.13,0,88.16,45.49,159.62,101.61,159.62A66.32,66.32,0,0,0,1062,519c32-23.31,54.24-74.24,54.24-133.33C1116.26,304.57,1074.4,238.82,1022.77,238.82Z"/><ellipse class="cls-7" cx="985.95" cy="332.43" rx="7.03" ry="17.94"/><polygon class="cls-21" points="907.59 171.35 644.72 394.97 644.72 719.14 1170.46 719.14 1170.46 394.97 907.59 171.35"/><rect class="cls-13" x="726.41" y="691.78" width="149.05" height="27.36"/><rect class="cls-22" x="738.59" y="477.59" width="124.69" height="214.64"/><rect class="cls-15" x="692.21" y="474.91" width="34.05" height="193.31"/><polygon class="cls-16" points="692.21 520.26 726.26 616.9 726.26 652.77 692.21 531.46 692.21 520.26"/><polygon class="cls-16" points="692.21 540.25 726.26 662.26 726.26 668.22 724.05 668.22 692.21 550.21 692.21 540.25"/><path class="cls-17" d="M728.72,668.22H688.47V474.91h40.25Zm-36.33-5.61h32.74V480.4H692.39Z"/><rect class="cls-15" x="872.73" y="474.91" width="34.05" height="193.31"/><polygon class="cls-16" points="872.73 520.26 906.79 616.9 906.79 652.77 872.73 531.46 872.73 520.26"/><polygon class="cls-16" points="872.73 540.25 906.79 662.26 906.79 668.22 904.58 668.22 872.73 550.21 872.73 540.25"/><path class="cls-17" d="M909.24,668.22H869V474.91h40.25Zm-36.32-5.61h32.74V480.4H872.92Z"/><polygon class="cls-23" points="644.72 444.23 922.23 216.57 1170.46 429.55 1180.48 395.91 907.59 171.35 644.72 394.97 644.72 444.23"/><polygon class="cls-24" points="1137.17 342.13 1137.17 342.13 1146.01 339.29 1068.42 280.37 1077.81 278.5 999.99 218.88 1006.84 215.84 907.59 135.87 808.34 215.84 815.19 218.88 737.37 278.5 746.75 280.37 669.17 339.29 678.01 342.13 678.01 342.13 590.99 409.91 630.36 429.55 907.59 190.12 1184.82 429.55 1224.19 409.91 1137.17 342.13"/><rect class="cls-25" x="738.59" y="477.59" width="8.21" height="214.64"/><rect class="cls-26" x="700.72" y="704.07" width="200.44" height="15.07"/><path class="cls-20" d="M853.33,600a4,4,0,1,1-4-4A4,4,0,0,1,853.33,600Z"/><circle class="cls-17" cx="907.59" cy="343.59" r="41.99"/><circle class="cls-15" cx="907.59" cy="343.59" r="34.78"/><path class="cls-16" d="M919.36,310.85l-38.21,55.33a35,35,0,0,0,5.76,5.38l35.83-59.29A34.88,34.88,0,0,0,919.36,310.85Z"/><path class="cls-16" d="M899,377.29a34.59,34.59,0,0,0,8.63,1.08,35.25,35.25,0,0,0,5.27-.39l18.6-59.67a34.34,34.34,0,0,0-4.67-3.72Z"/><path class="cls-10" d="M381.85,267.88c-3.67-3.88-6.82-4.84-9.32-4.52-1.27-4.66-6.51-8.15-12.79-8.15s-11.44,3.45-12.76,8.06c-12.09-2.06-15.24,12.59-15.24,12.59h60C394.52,265.12,381.85,267.88,381.85,267.88Z"/><circle class="cls-27" cx="284.11" cy="105.14" r="75.44"/><path class="cls-28" d="M417.13,608.89H428a.88.88,0,0,1,.88.88v.6a.88.88,0,0,1-.88.88H417.13a0,0,0,0,1,0,0v-2.37A0,0,0,0,1,417.13,608.89Z" transform="translate(846.06 1220.15) rotate(180)"/><path class="cls-28" d="M506.79,608.89h10.92a.88.88,0,0,1,.88.88v.6a.88.88,0,0,1-.88.88H506.79a0,0,0,0,1,0,0v-2.37A0,0,0,0,1,506.79,608.89Z"/><path class="cls-29" d="M490.12,733.72l2.55-.33L476.43,632.18a.82.82,0,0,0-.86-.75l-1,.13a.91.91,0,0,0-.68,1.09Z"/><path class="cls-30" d="M495.38,736.65l-1.73-5.38a.34.34,0,0,0-.48-.18l-4.3,2.09a.31.31,0,0,0-.18.3l.32,3.14a.2.2,0,0,0,.2.16h6.06A.1.1,0,0,0,495.38,736.65Z"/><path class="cls-31" d="M484.76,568.19H483c0-6.75-5.35-7.36-5.57-7.39l.18-1.62C477.64,559.19,484.76,559.93,484.76,568.19Z"/><path class="cls-31" d="M454,568.19h-1.81c0-8.26,7.12-9,7.19-9l.18,1.62-.09-.81.09.81C459.38,560.83,454,561.44,454,568.19Z"/><rect class="cls-32" x="459.01" y="558" width="18.98" height="4.35" rx="0.92"/><rect class="cls-31" x="463.27" y="602.04" width="8.83" height="3.59"/><path class="cls-28" d="M508.49,583.07a22.46,22.46,0,0,0-9.83-10.15c-9-5.1-20-6.5-30.45-6.52-10.75,0-22.22,1.25-31.5,6.52-4.51,2.55-8.35,6.26-10.12,10.87-.33.88-2.58,10-2.42,10l43.51-.73,43.52.73c.16,0-2.06-9.17-2.44-10.11C508.67,583.48,508.59,583.28,508.49,583.07Z"/><ellipse class="cls-33" cx="467.69" cy="593.8" rx="43.52" ry="9.22"/><path class="cls-28" d="M467.69,604.81H424.16v2.12l2.44,2.21s4.78,35.47,41.09,35.47,41.08-35.47,41.08-35.47l2.44-2.21v-2.12Z"/><path class="cls-31" d="M447.22,639.79a42,42,0,0,0,20.47,4.82c36.3,0,41.08-35.47,41.08-35.47l2.44-2.21v-2.12H499.07S494,646.44,447.22,639.79Z"/><path class="cls-30" d="M490.16,636.05c.44,1.33-1.05,2.91-3.31,3.52s-4.46,0-4.9-1.33,1.05-2.92,3.32-3.52S489.72,634.71,490.16,636.05Z"/><path class="cls-30" d="M445.21,636.05c-.44,1.33,1.05,2.91,3.31,3.52s4.46,0,4.9-1.33-1.05-2.92-3.31-3.52S445.65,634.71,445.21,636.05Z"/><path class="cls-29" d="M417.11,735.79l-2.46-.69,33.26-97.82a.75.75,0,0,1,.9-.55l.92.25a1,1,0,0,1,.55,1.25Z"/><path class="cls-30" d="M411.87,739l1.74-5.38a.34.34,0,0,1,.47-.18l4.3,2.09a.29.29,0,0,1,.18.31l-.32,3.13a.19.19,0,0,1-.2.17H412A.11.11,0,0,1,411.87,739Z"/><path class="cls-29" d="M518.42,735.79l2.47-.69-33.26-97.82a.76.76,0,0,0-.91-.55l-.92.25a1,1,0,0,0-.55,1.25Z"/><path class="cls-30" d="M523.66,739l-1.73-5.38a.35.35,0,0,0-.48-.18l-4.3,2.09a.32.32,0,0,0-.18.31l.32,3.13a.2.2,0,0,0,.2.17h6.06A.11.11,0,0,0,523.66,739Z"/><path class="cls-10" d="M203.69,88.14c-7.82-8.25-14.51-10.31-19.84-9.62-2.7-9.91-13.85-17.34-27.21-17.34s-24.37,7.33-27.16,17.14C103.75,74,97,105.14,97,105.14H224.79C230.65,82.28,203.69,88.14,203.69,88.14Z"/><path class="cls-10" d="M734.75,80.4c-3.11-3.28-5.76-4.1-7.88-3.82-1.07-3.94-5.5-6.88-10.8-6.88s-9.67,2.91-10.78,6.8c-10.21-1.74-12.87,10.64-12.87,10.64h50.7C745.45,78.07,734.75,80.4,734.75,80.4Z"/><rect class="cls-34" x="-298.08" y="780.51" width="1531.09" height="4.96"/><rect class="cls-34" x="-298.08" y="706.55" width="1531.09" height="4.96"/><path class="cls-35" d="M32,811H-5.37V666.66A18.68,18.68,0,0,1,13.31,648h0A18.69,18.69,0,0,1,32,666.66Z"/><path class="cls-35" d="M86.43,811H49.06V666.66A18.69,18.69,0,0,1,67.75,648h0a18.68,18.68,0,0,1,18.68,18.69Z"/><path class="cls-35" d="M140.87,811H103.49V666.66A18.69,18.69,0,0,1,122.18,648h0a18.69,18.69,0,0,1,18.69,18.69Z"/><path class="cls-35" d="M195.3,811H157.93V666.66A18.68,18.68,0,0,1,176.61,648h0a18.69,18.69,0,0,1,18.69,18.69Z"/><path class="cls-35" d="M249.73,811H212.36V666.66A18.69,18.69,0,0,1,231.05,648h0a18.68,18.68,0,0,1,18.68,18.69Z"/><path class="cls-35" d="M304.17,811H266.79V666.66A18.69,18.69,0,0,1,285.48,648h0a18.69,18.69,0,0,1,18.69,18.69Z"/><path class="cls-35" d="M358.6,811H321.23V666.66A18.68,18.68,0,0,1,339.91,648h0a18.69,18.69,0,0,1,18.69,18.69Z"/><path class="cls-35" d="M413,811H375.66V666.66A18.69,18.69,0,0,1,394.35,648h0A18.68,18.68,0,0,1,413,666.66Z"/><path class="cls-35" d="M467.47,811H430.09V666.66A18.69,18.69,0,0,1,448.78,648h0a18.69,18.69,0,0,1,18.69,18.69Z"/><path class="cls-35" d="M521.9,811H484.53V666.66A18.68,18.68,0,0,1,503.21,648h0a18.69,18.69,0,0,1,18.69,18.69Z"/><path class="cls-35" d="M576.33,811H539V666.66A18.69,18.69,0,0,1,557.65,648h0a18.68,18.68,0,0,1,18.68,18.69Z"/><path class="cls-35" d="M630.76,811H593.39V666.66A18.69,18.69,0,0,1,612.08,648h0a18.68,18.68,0,0,1,18.68,18.69Z"/><path class="cls-35" d="M685.2,811H647.83V666.66A18.68,18.68,0,0,1,666.51,648h0a18.69,18.69,0,0,1,18.69,18.69Z"/><path class="cls-35" d="M739.63,811H702.26V666.66A18.69,18.69,0,0,1,721,648h0a18.68,18.68,0,0,1,18.68,18.69Z"/><path class="cls-35" d="M794.06,811H756.69V666.66A18.69,18.69,0,0,1,775.38,648h0a18.68,18.68,0,0,1,18.68,18.69Z"/><path class="cls-35" d="M848.5,811H811.13V666.66A18.68,18.68,0,0,1,829.81,648h0a18.69,18.69,0,0,1,18.69,18.69Z"/><path class="cls-35" d="M902.93,811H865.56V666.66A18.68,18.68,0,0,1,884.24,648h0a18.69,18.69,0,0,1,18.69,18.69Z"/><path class="cls-35" d="M957.36,811H920V666.66A18.69,18.69,0,0,1,938.68,648h0a18.68,18.68,0,0,1,18.68,18.69Z"/><path class="cls-35" d="M1011.8,811H974.43V666.66A18.68,18.68,0,0,1,993.11,648h0a18.69,18.69,0,0,1,18.69,18.69Z"/></g><rect class="cls-36" x="-218" y="909.33" width="1580" height="12.33"/><rect class="cls-37" x="-40.25" y="921.67" width="1594.75" height="75"/><line class="cls-38" x1="55.62" y1="909.33" x2="157.93" y2="810.97"/><line class="cls-38" x1="301.03" y1="909.33" x2="403.34" y2="810.97"/><line class="cls-38" x1="546.44" y1="909.33" x2="648.75" y2="810.97"/><line class="cls-38" x1="805.17" y1="909.33" x2="907.48" y2="810.97"/></g></g></svg>