<svg xmlns="http://www.w3.org/2000/svg" viewBox="0 0 980 980" xmlns:v="https://vecta.io/nano"><style>.B{isolation:isolate}.W{mix-blend-mode:multiply}</style><defs><clipPath id="A"><path d="M-210 0h1400v980H-210z" fill="none"/></clipPath></defs><g class="B"><g clip-path="url(#A)"><path d="M-210 801.23h1400V981.8H-210z" fill="#c3c5c1"/><g fill="#c0e7f7"><path d="M-210 1.93h1400v781.72H-210z"/><path d="M1190 781.4H-188.9c-6.06 0-12.7-.76-18.72 0a18.9 18.9 0 0 1-2.38 0l2.26 2.27V13.76c0-3 .9-7.64 0-10.5a5.3 5.3 0 0 1 0-1.32L-210 4.2h1378.9c6.06 0 12.7.76 18.72 0a18.9 18.9 0 0 1 2.38 0l-2.26-2.27v749.8c0 10-1 20.65 0 30.6v1.32c0 2.9 4.52 2.9 4.52 0V33.86c0-10 1-20.65 0-30.6V1.93A2.29 2.29 0 0 0 1190-.33H-153.17c-18.14 0-36.3-.24-54.45 0H-210a2.3 2.3 0 0 0-2.26 2.26v749.8c0 10-1.05 20.65 0 30.6v1.32a2.29 2.29 0 0 0 2.26 2.26h1400c2.9 0 2.92-4.53 0-4.53z"/></g><path d="M552 414.04h15.08v287.8H552z" fill="#c39e6c"/><ellipse cx="559.55" cy="422.72" rx="86.08" ry="135.22" fill="#69b26d"/><path d="M537 319.53c-17.93 0-34.47 9.37-47.74 25.14-9.94 22.05-15.78 49-15.78 78.05C473.47 497.4 512 558 559.55 558a56 56 0 0 0 10.69-1c27.13-19.75 46-62.9 46-112.95-.05-68.8-35.5-124.52-79.24-124.52z" fill="#589f5d"/><g fill="#69b26d"><path d="M565.5 376.85c0 8.4-2.66 15.2-6 15.2s-6-6.8-6-15.2 2.67-15.2 6-15.2 6 6.8 6 15.2z"/><ellipse cx="505.8" cy="398.84" rx="5.96" ry="15.2"/><path d="M523.67 500.27c0 8.4-2.67 15.2-6 15.2s-6-6.8-6-15.2 2.67-15.2 6-15.2 6 6.8 6 15.2z"/><ellipse cx="586.18" cy="469.14" rx="5.96" ry="15.2"/><ellipse cx="544.83" cy="447.98" rx="5.96" ry="15.2"/></g><path d="M-210 661.38h1400v149.55H-210z" fill="#74c044"/><path d="M995.4 170.85c-6.06-6.4-11.24-8-15.37-7.45-2.1-7.68-10.73-13.4-21.03-13.4s-18.88 5.68-21 13.28c-20-3.42-25.2 20.72-25.2 20.72h99c4.5-17.7-16.4-13.15-16.4-13.15z" fill="#f4faf6"/><path d="M225.2 725.22H896a26.74 26.74 0 0 0-42.38-13.88 60.48 60.48 0 0 0-74.87-36.58 67.74 67.74 0 0 0 .58-8.83 66.44 66.44 0 0 0-116.43-43.76 51.16 51.16 0 0 0-50.82-22.53 60.41 60.41 0 0 0-119.22-13.58 60.42 60.42 0 0 0-88 7.33A26.76 26.76 0 1 0 358.32 617 51.13 51.13 0 0 0 320 644.19a60.44 60.44 0 0 0-84.41 31 26.76 26.76 0 0 0-10.42 50zm285.9-80.55l3.07 2.6h-3.74l.67-2.6zM392.37 623l-.12 1-.82-.5c.32-.13.63-.3.94-.5z" fill="#bac855"/><path d="M121 177.35l-262.87 223.62v324.17h525.73V400.97L121 177.35z" fill="#93b2b6"/><path d="M-152.24 664.87h546.48v60.26h-546.48z" fill="#75817e"/><path d="M58.65 450.23h124.7v214.64H58.65z" fill="#825735"/><path d="M226.44 461.77h85.73v107.55h-85.73z" fill="#4eb3b0"/><g fill="#a4c7b1"><path d="M226.44 487l85.72 53.76v19.97l-85.72-67.5V487zm0 11.12L312.16 566v3.32h-5.55l-80.17-65.66v-5.54z"/></g><path d="M315.28 572.44h-92v-113.8h92zm-85.73-6.24H309V464.9h-79.45z" fill="#9c7a53"/><path d="M-70.17 461.77h85.73v107.55h-85.73z" fill="#4eb3b0"/><g fill="#a4c7b1"><path d="M-70.17 487l85.72 53.76v19.97l-85.72-67.5V487zm0 11.12L15.55 566v3.32H10l-80.18-65.66v-5.54z"/></g><path d="M18.67 572.44h-92v-113.8h92zM-67 566.2h79.44V464.9H-67z" fill="#9c7a53"/><path d="M-141.87 450.23l277.5-227.66 248.22 212.98 10.03-33.64L121 177.35-141.87 400.97v49.26z" fill="#93b2b6"/><path d="M350.58 348.13h0l8.83-2.84-77.58-58.92 9.38-1.87-77.82-59.62 6.85-3.04L121 141.87l-99.25 79.97 6.85 3.04-77.82 59.62 9.38 1.87-77.58 58.92 8.83 2.84-87 67.78 39.36 19.64L121 196.12l277.23 239.43 39.36-19.64-87-67.78z" fill="#4b6c7c"/><path d="M58.65 450.23h8.2v214.64h-8.2z" fill="#825735" opacity=".48"/><path d="M174.4 576.42a4 4 0 1 1-4-4 4 4 0 0 1 4 4z" fill="#592722"/><ellipse cx="1049.4" cy="360.62" rx="101.61" ry="159.62" fill="#69b26d"/><path d="M1022.77 238.82c-21.17 0-40.68 11.05-56.35 29.67-11.73 26-18.63 57.8-18.63 92.13 0 88.16 45.5 159.62 101.6 159.62A66.32 66.32 0 0 0 1062 519c32-23.3 54.24-74.24 54.24-133.33.02-81.1-41.84-146.85-93.47-146.85z" fill="#589f5d"/><ellipse cx="985.95" cy="332.43" rx="7.03" ry="17.94" fill="#69b26d"/><path d="M907.6 171.35L644.72 394.97v324.17h525.74V394.97L907.6 171.35z" fill="#f7ca79"/><path d="M726.4 691.78h149.05v27.36H726.4z" fill="#75817e"/><path d="M738.6 477.6h124.7v214.64H738.6z" fill="#724f33"/><path d="M692.2 474.9h34.05v193.3H692.2z" fill="#4eb3b0"/><g fill="#a4c7b1"><path d="M692.2 520.26l34.05 96.64v35.87l-34.05-121.3v-11.2zm0 20l34.05 122v5.96h-2.2l-31.84-118v-9.96z"/></g><path d="M728.72 668.22h-40.25V474.9h40.25zm-36.33-5.6h32.74V480.4H692.4z" fill="#9c7a53"/><path d="M872.73 474.9h34.05v193.3h-34.05z" fill="#4eb3b0"/><g fill="#a4c7b1"><path d="M872.73 520.26l34.06 96.64v35.87l-34.06-121.3v-11.2zm0 20l34.06 122v5.96h-2.2l-31.85-118v-9.96z"/></g><path d="M909.24 668.22H869V474.9h40.25zm-36.32-5.6h32.74V480.4h-32.74z" fill="#9c7a53"/><path class="W" d="M644.72 444.23l277.5-227.66 248.23 212.98 10.02-33.64-272.9-224.56-262.87 223.62v49.26z" fill="#ffe7ab"/><path d="M1137.17 342.13h0l8.84-2.84-77.6-58.92 9.4-1.87-77.82-59.62 6.85-3.04-99.25-79.97-99.25 79.97 6.85 3.04-77.82 59.62 9.38 1.87-77.58 58.92 8.84 2.84L591 409.9l39.37 19.64L907.6 190.12l277.23 239.43 39.37-19.64-87.02-67.78z" fill="#f15722"/><path d="M738.6 477.6h8.2v214.64h-8.2z" opacity=".48" fill="#724f33"/><path d="M700.72 704.07h200.44v15.07H700.72z" fill="#66716f"/><path d="M853.33 600a4 4 0 1 1-4-4 4 4 0 0 1 4 4z" fill="#592722"/><circle cx="907.59" cy="343.59" r="41.99" fill="#9c7a53"/><circle cx="907.59" cy="343.59" r="34.78" fill="#4eb3b0"/><g fill="#a4c7b1"><path d="M919.36 310.85l-38.2 55.33a35 35 0 0 0 5.76 5.38l35.83-59.3a34.88 34.88 0 0 0-3.38-1.42zM899 377.3a34.59 34.59 0 0 0 8.63 1.08 35.25 35.25 0 0 0 5.27-.39l18.6-59.67a34.34 34.34 0 0 0-4.67-3.72z"/></g><path d="M381.85 267.88c-3.67-3.88-6.82-4.84-9.32-4.52-1.27-4.66-6.5-8.15-12.8-8.15s-11.44 3.45-12.76 8.06c-12.1-2.06-15.24 12.6-15.24 12.6h60c2.78-10.74-9.9-7.98-9.9-7.98z" fill="#f4faf6"/><circle cx="284.11" cy="105.14" r="75.44" fill="#f9d753"/><g fill="#ef3b24"><path d="M428.93 611.26h-10.87a.88.88 0 0 1-.88-.88v-.6a.88.88 0 0 1 .88-.88h10.87v2.36zm77.87-2.36h10.92a.88.88 0 0 1 .88.88v.6a.88.88 0 0 1-.88.88H506.8a0 0 0 0 1 0 0v-2.37a0 0 0 0 1 0 .01z"/></g><path d="M490.12 733.72l2.55-.33-16.24-101.2a.82.82 0 0 0-.86-.75l-1 .13a.91.91 0 0 0-.68 1.09z" fill="#64431c"/><path d="M495.38 736.65l-1.73-5.38a.34.34 0 0 0-.48-.18l-4.3 2.1a.31.31 0 0 0-.18.3l.32 3.14a.2.2 0 0 0 .2.16h6.06a.1.1 0 0 0 .11-.13z" fill="#a3703b"/><g fill="#c3301b"><path d="M484.76 568.2H483c0-6.75-5.35-7.36-5.57-7.4l.18-1.62c.03.01 7.15.75 7.15 9zm-30.76 0h-1.8c0-8.26 7.12-9 7.2-9l.18 1.62c-.18.02-5.56.63-5.56 7.38z"/></g><rect x="459.01" y="558" width="18.98" height="4.35" rx=".92" fill="#ccc49f"/><path d="M463.27 602.04h8.83v3.6h-8.83z" fill="#c3301b"/><path d="M508.5 583.07a22.46 22.46 0 0 0-9.83-10.15c-9-5.1-20-6.5-30.45-6.52-10.75 0-22.22 1.25-31.5 6.52-4.5 2.55-8.35 6.26-10.12 10.87-.33.88-2.58 10-2.42 10l43.5-.73 43.52.73c.16 0-2.06-9.17-2.44-10.1l-.27-.6z" fill="#ef3b24"/><ellipse cx="467.69" cy="593.8" rx="43.52" ry="9.22" fill="#520000"/><path d="M467.7 604.8h-43.53v2.12l2.44 2.2s4.78 35.47 41.1 35.47 41.08-35.47 41.08-35.47l2.44-2.2v-2.12z" fill="#ef3b24"/><path d="M447.22 639.8a42 42 0 0 0 20.47 4.82c36.3 0 41.08-35.47 41.08-35.47l2.44-2.2v-2.12h-12.14s-5.07 41.63-51.85 34.98z" fill="#c3301b"/><g fill="#a3703b"><path d="M490.16 636.05c.44 1.33-1.05 2.9-3.3 3.52s-4.46 0-4.9-1.33 1.05-2.92 3.32-3.52 4.45-.01 4.9 1.33zm-44.96 0c-.44 1.33 1.05 2.9 3.3 3.52s4.46 0 4.9-1.33-1.05-2.92-3.3-3.52-4.46-.01-4.9 1.33z"/></g><path d="M417.1 735.8l-2.46-.7 33.26-97.82a.75.75 0 0 1 .9-.55l.92.25a1 1 0 0 1 .55 1.25z" fill="#64431c"/><path d="M411.87 739l1.74-5.38a.34.34 0 0 1 .47-.18l4.3 2.1a.29.29 0 0 1 .18.31l-.32 3.13a.19.19 0 0 1-.2.17H412a.11.11 0 0 1-.13-.14z" fill="#a3703b"/><path d="M518.42 735.8l2.47-.7-33.26-97.82a.76.76 0 0 0-.91-.55l-.92.25a1 1 0 0 0-.55 1.25z" fill="#64431c"/><path d="M523.66 739l-1.73-5.38a.35.35 0 0 0-.48-.18l-4.3 2.1a.32.32 0 0 0-.18.31l.32 3.13a.2.2 0 0 0 .2.17h6.06a.11.11 0 0 0 .11-.14z" fill="#a3703b"/><g fill="#f4faf6"><path d="M203.7 88.14c-7.82-8.25-14.5-10.3-19.84-9.62-2.7-9.9-13.85-17.34-27.2-17.34S132.3 68.5 129.5 78.32C103.75 74 97 105.14 97 105.14h127.8c5.86-22.86-21.1-17-21.1-17zm531.05-7.74c-3.1-3.28-5.76-4.1-7.88-3.82-1.07-3.94-5.5-6.88-10.8-6.88s-9.67 2.9-10.78 6.8c-10.2-1.74-12.87 10.64-12.87 10.64h50.7c2.33-9.07-8.37-6.74-8.37-6.74z"/></g><g fill="#9e6e20"><path d="M-298.08 780.5H1233v4.96H-298.1zm0-73.95H1233v4.96H-298.1z"/></g><g fill="#daac66"><path d="M32 811H-5.37V666.66A18.68 18.68 0 0 1 13.31 648h0A18.69 18.69 0 0 1 32 666.66zm54.43 0H49.06V666.66A18.69 18.69 0 0 1 67.75 648h0a18.68 18.68 0 0 1 18.68 18.69zm54.44 0H103.5V666.66A18.69 18.69 0 0 1 122.18 648h0a18.69 18.69 0 0 1 18.69 18.69zm54.43 0h-37.37V666.66A18.68 18.68 0 0 1 176.61 648h0a18.69 18.69 0 0 1 18.69 18.69zm54.43 0h-37.37V666.66A18.69 18.69 0 0 1 231.05 648h0a18.68 18.68 0 0 1 18.68 18.69zm54.44 0H266.8V666.66A18.69 18.69 0 0 1 285.48 648h0a18.69 18.69 0 0 1 18.69 18.69zm54.43 0h-37.37V666.66A18.68 18.68 0 0 1 339.91 648h0a18.69 18.69 0 0 1 18.69 18.69zm54.4 0h-37.34V666.66A18.69 18.69 0 0 1 394.35 648h0A18.68 18.68 0 0 1 413 666.66zm54.47 0H430.1V666.66A18.69 18.69 0 0 1 448.78 648h0a18.69 18.69 0 0 1 18.69 18.69zm54.43 0h-37.37V666.66A18.68 18.68 0 0 1 503.21 648h0a18.69 18.69 0 0 1 18.69 18.69zm54.43 0H539V666.66A18.69 18.69 0 0 1 557.65 648h0a18.68 18.68 0 0 1 18.68 18.69zm54.43 0H593.4V666.66A18.69 18.69 0 0 1 612.08 648h0a18.68 18.68 0 0 1 18.68 18.69zm54.44 0h-37.37V666.66A18.68 18.68 0 0 1 666.51 648h0a18.69 18.69 0 0 1 18.69 18.69zm54.43 0h-37.37V666.66A18.69 18.69 0 0 1 721 648h0a18.68 18.68 0 0 1 18.68 18.69zm54.43 0H756.7V666.66A18.69 18.69 0 0 1 775.38 648h0a18.68 18.68 0 0 1 18.68 18.69zm54.44 0h-37.37V666.66A18.68 18.68 0 0 1 829.81 648h0a18.69 18.69 0 0 1 18.69 18.69zm54.43 0h-37.37V666.66A18.68 18.68 0 0 1 884.24 648h0a18.69 18.69 0 0 1 18.69 18.69zm54.43 0H920V666.66A18.69 18.69 0 0 1 938.68 648h0a18.68 18.68 0 0 1 18.68 18.69zm54.44 0h-37.37V666.66A18.68 18.68 0 0 1 993.11 648h0a18.69 18.69 0 0 1 18.69 18.69z"/></g></g><path d="M-218 909.33h1580v12.33H-218z" fill="#a2a2a1"/><path d="M-40.25 921.67H1554.5v75H-40.25z" fill="#6d6e71"/><path d="M55.62 909.33l102.3-98.36m143.1 98.36l102.3-98.36m143.1 98.36l102.3-98.36m156.43 98.36l102.3-98.36" fill="none" stroke="#bcbec0" stroke-miterlimit="10" stroke-width="3"/></g></svg>