<svg xmlns="http://www.w3.org/2000/svg" viewBox="0 0 235.19 235.19" xmlns:v="https://vecta.io/nano"><style><![CDATA[.I{fill-rule:evenodd}]]></style><defs><linearGradient id="A" x1="117.6" y1="-5.94" x2="117.6" y2="231.48" gradientUnits="userSpaceOnUse"><stop offset=".1" stop-color="#45c4da"/><stop offset=".16" stop-color="#62cbd5"/><stop offset=".27" stop-color="#9edbcb"/><stop offset=".36" stop-color="#c4e4c5"/><stop offset=".4" stop-color="#d2e8c3"/><stop offset=".62" stop-color="#eaf1bd"/><stop offset=".83" stop-color="#f9f7b9"/><stop offset="1" stop-color="#fff9b8"/></linearGradient><linearGradient id="B" x1="117.6" y1="145.97" x2="117.6" y2="94.17" gradientUnits="userSpaceOnUse"><stop offset=".05" stop-color="#cde5be"/><stop offset="1" stop-color="#a4b99b"/></linearGradient></defs><path d="M-50.4 0h336v235.2h-336z" fill="url(#A)"/><g opacity=".5" fill="#fff" class="I"><path d="M90.57 90.68a2.94 2.94 0 0 1 .23 1.14c0 2.3-2.65 4.17-5.9 4.17a7.9 7.9 0 0 1-2.89-.52 1.48 1.48 0 0 1 0 .21c0 3.16-3.62 5.72-8.1 5.72a11.57 11.57 0 0 1-2.68-.32 13.92 13.92 0 0 1-8.91 3C56 104 50.9 100.43 50.8 96h-.44c-3.26 0-5.9-1.87-5.9-4.17a3.13 3.13 0 0 1 .23-1.14z"/><path d="M90.57 92.92a2.94 2.94 0 0 0 .23-1.14c0-2.3-2.65-4.17-5.9-4.17a7.9 7.9 0 0 0-2.85.52 1.48 1.48 0 0 0 0-.21c0-3.16-3.62-5.72-8.1-5.72a11.57 11.57 0 0 0-2.68.32 13.91 13.91 0 0 0-8.91-2.94c-6.33 0-11.48 3.6-11.58 8h-.44c-3.26 0-5.9 1.87-5.9 4.17a3.13 3.13 0 0 0 .23 1.14z"/></g><g opacity=".5" fill="#fff" class="I"><path d="M234.7 27.1a2.33 2.33 0 0 1-.18-.9c0-1.8 2.07-3.26 4.62-3.26a6.11 6.11 0 0 1 2.23.41v-.17c0-2.46 2.84-4.47 6.33-4.47a8.39 8.39 0 0 1 2.1.26 10.84 10.84 0 0 1 7-2.31c5 0 9 2.8 9.06 6.3h.35c2.55 0 4.6 1.46 4.6 3.26a2.52 2.52 0 0 1-.17.9z"/><path d="M234.7 25.35a2.44 2.44 0 0 0-.18.89c0 1.8 2.07 3.26 4.62 3.26a6.1 6.1 0 0 0 2.23-.4v.16c0 2.47 2.83 4.48 6.32 4.48a8.88 8.88 0 0 0 2.1-.26 10.84 10.84 0 0 0 7 2.31c5 0 9-2.8 9.06-6.3h.35c2.55 0 4.62-1.46 4.6-3.26a2.27 2.27 0 0 0-.17-.89z"/></g><g opacity=".5" fill="#fff" class="I"><path d="M-10.43 44.93a2.25 2.25 0 0 1-.18-.89c0-1.8 2.07-3.26 4.62-3.26a6.1 6.1 0 0 1 2.23.4v-.16c0-2.47 2.84-4.47 6.33-4.47a8.88 8.88 0 0 1 2.1.25 10.84 10.84 0 0 1 7-2.31c5 0 9 2.8 9.06 6.3H21c2.55 0 4.6 1.46 4.6 3.26a2.25 2.25 0 0 1-.18.89z"/><path d="M-10.43 43.18a2.25 2.25 0 0 0-.18.89c0 1.8 2.07 3.26 4.62 3.26a6.11 6.11 0 0 0 2.23-.41v.17c0 2.47 2.84 4.47 6.33 4.47a8.88 8.88 0 0 0 2.1-.25 10.83 10.83 0 0 0 7 2.3c5 0 9-2.8 9.06-6.3H21c2.55 0 4.6-1.46 4.6-3.26a2.25 2.25 0 0 0-.18-.89z"/></g><g opacity=".5" fill="#fff" class="I"><path d="M173.93 67.38a4.39 4.39 0 0 1 .31 1.61c0 3.27-3.74 5.92-8.36 5.92a11.09 11.09 0 0 1-4-.74v.3c0 4.47-5.14 8.1-11.47 8.1a15.57 15.57 0 0 1-3.8-.46A19.62 19.62 0 0 1 134 86.29c-9 0-16.26-5.1-16.4-11.4h-.63c-4.62 0-8.37-2.65-8.37-5.92a4.41 4.41 0 0 1 .33-1.61z"/><path d="M173.93 70.56a4.43 4.43 0 0 0 .31-1.61c0-3.27-3.74-5.92-8.36-5.92a11.09 11.09 0 0 0-4 .74v-.3c0-4.47-5.14-8.1-11.47-8.1a16.08 16.08 0 0 0-3.8.45A19.67 19.67 0 0 0 134 51.65c-9 0-16.26 5.08-16.4 11.4q-.3 0-.63 0c-4.62 0-8.37 2.65-8.37 5.92a4.25 4.25 0 0 0 .33 1.61z"/></g><path d="M262.7 111.8c-13.68 5.8-27.35 17.33-44.24 16.58s-24.94-16.8-44.8-5.63-30.8-4.76-50.12-22.06-37.8 10.9-57.9 22.06-22.53 4-35.4-6.38-24.13-3.2-47.45 7.18c-14.64 6.5-26.43 2-33.18-2.23V169h336v-50.1c-5.45-4.9-14.33-10.7-22.9-7.08z" fill="url(#B)"/><path d="M283.36 139.2c-11.26 2.87-27.35 1.9-52.3-3.94s-30.56 1.06-75.6 6-68.37-11.3-103.76-4.14-23.33 11.17-54.7 5.7c-24.7-4.3-41.4-5.35-47.4-5.6V165h336v-26.44c-.7.2-1.45.44-2.24.63z" fill="#c0d957"/><path d="M279.6 158.64c-12.87 4.8-18.5-.8-54.7-11.16s-45.85-1.6-82.85 8-41 10.37-107.78 0c-46.1-7.16-72.65-4.43-84.66-2v41l336 10.07V156.4z" fill="#aecb4b"/><path d="M226.5 192.58c-42.63-8.33-66.76-22-105.37-10.28s-52.3 13.82-90.13 4.25c-29.72-7.52-66.9-3.22-81.44-1v49.67h336v-48.5c-8.72 3.7-24.8 12.55-59.06 5.86z" fill="#9fbb47"/><g fill="#fff" class="I"><path d="M220.25 36.94a3.12 3.12 0 0 1 .22 1.14c0 2.3-2.64 4.17-5.9 4.17a7.86 7.86 0 0 1-2.85-.52v.2c0 3.16-3.63 5.72-8.1 5.72a11.66 11.66 0 0 1-2.69-.32 13.87 13.87 0 0 1-8.9 2.95c-6.34 0-11.48-3.6-11.6-8.06H180c-3.26 0-5.9-1.87-5.9-4.17a2.94 2.94 0 0 1 .23-1.14z"/><path d="M220.25 39.18a3.12 3.12 0 0 0 .22-1.14c0-2.3-2.64-4.17-5.9-4.17a7.82 7.82 0 0 0-2.85.52v-.2c0-3.16-3.63-5.72-8.1-5.72a11.13 11.13 0 0 0-2.69.33 13.81 13.81 0 0 0-8.9-2.95c-6.34 0-11.48 3.6-11.6 8.05H180c-3.26 0-5.9 1.87-5.9 4.17a2.94 2.94 0 0 0 .23 1.14zM73.4 46.82a2.71 2.71 0 0 1-.19-1c0-2 2.28-3.6 5.08-3.6a6.9 6.9 0 0 1 2.46.44v-.18c0-2.72 3.12-4.92 7-4.92a10.08 10.08 0 0 1 2.31.27 12 12 0 0 1 7.68-2.54c5.45 0 9.88 3.1 10 6.94h.27c2.8 0 5.1 1.6 5.1 3.6a2.53 2.53 0 0 1-.2 1z"/><path d="M73.4 44.9a2.71 2.71 0 0 0-.19 1c0 2 2.28 3.6 5.1 3.6a6.85 6.85 0 0 0 2.45-.48v.18c0 2.72 3.12 4.92 7 4.92a10.08 10.08 0 0 0 2.26-.25 12 12 0 0 0 7.68 2.54c5.45 0 9.88-3.1 10-6.94h.32c2.8 0 5.1-1.6 5.1-3.6a2.53 2.53 0 0 0-.2-1zM15.92 85.26a3.42 3.42 0 0 1 .25 1.27c0 2.6-3 4.68-6.62 4.68a8.79 8.79 0 0 1-3.19-.58v.23c0 3.55-4.07 6.42-9.07 6.42a12.17 12.17 0 0 1-3-.37 15.51 15.51 0 0 1-10 3.31c-7.1 0-12.86-4-13-9h-.5c-3.65 0-6.62-2.1-6.62-4.68a3.43 3.43 0 0 1 .26-1.27z"/><path d="M15.92 87.77a3.42 3.42 0 0 0 .25-1.27c0-2.6-3-4.68-6.62-4.68a8.79 8.79 0 0 0-3.19.58v-.24c0-3.54-4.07-6.4-9.07-6.4a12.17 12.17 0 0 0-3 .37 15.57 15.57 0 0 0-10-3.31c-7.1 0-12.86 4-13 9h-.5c-3.65 0-6.62 2.1-6.62 4.68a3.43 3.43 0 0 0 .26 1.27zM55.8 4.28h-.58A8.27 8.27 0 0 0 54 .17H16.3a6.22 6.22 0 0 0-2.15 4.51v.28a10.37 10.37 0 0 0-3.74-.68c-4.28 0-7.75 2.45-7.75 5.48A4 4 0 0 0 3 11.25h60.26a4 4 0 0 0 .3-1.49c0-3.03-3.47-5.48-7.75-5.48z"/><path d="M3 8.3a4 4 0 0 0-.32 1.49c0 3 3.47 5.48 7.75 5.48a10.37 10.37 0 0 0 3.74-.68v.28c0 4.14 4.75 7.5 10.62 7.5a14.9 14.9 0 0 0 3.53-.39A18.2 18.2 0 0 0 40 25.84c8.32 0 15.08-4.72 15.22-10.58h.58c4.28 0 7.75-2.45 7.75-5.48a4 4 0 0 0-.3-1.49z"/></g><path d="M23.23 192.1c-.25 1.38-4.43 1.76-9.33.86s-8.68-2.76-8.43-4.13 4.44-1.76 9.34-.85 8.68 2.75 8.42 4.12zm109.85-1.1c.38 2.05-5.24 4.8-12.55 6.14s-13.54.77-13.92-1.28 5.25-4.8 12.56-6.15 13.54-.7 13.9 1.3zm58.54 4.35c-.3 1.7-5.48 2.23-11.57 1.18s-10.8-3.3-10.5-5 5.47-2.23 11.56-1.18 10.8 3.3 10.5 5zm-88.4 3.22c0 1.12-3.24 2-7.22 2s-7.2-.93-7.2-2 3.23-2 7.2-2 7.2.9 7.2 2zm-67.03-2.3c-.17.73-2.43.84-5.06.24s-4.62-1.7-4.45-2.43 2.44-.85 5.06-.24 4.62 1.7 4.45 2.43zm170.8 0c-.17.73-2.43.84-5.06.24s-4.62-1.7-4.45-2.43 2.44-.85 5.06-.24 4.6 1.7 4.45 2.43z" fill="#8ba33d"/></svg>