<svg xmlns="http://www.w3.org/2000/svg" viewBox="0 0 235.19 235.19" xmlns:v="https://vecta.io/nano"><style><![CDATA[.U{fill:#fff}.V{fill:#ffd680}.W{fill:#91d3d9}.X{fill:#c4edf1}.Y{fill:#656a73}.Z{fill:#f2f2f2}.a{fill:#e6e5e5}.b{fill:#cccbca}.c{fill:#353f49}.d{fill:#474f59}]]></style><defs><linearGradient id="A" x1="117.59" y1="-.11" x2="117.59" y2="235.08" gradientUnits="userSpaceOnUse"><stop offset="0" stop-color="#e9eceb"/><stop offset="1" stop-color="#ffcbb7"/></linearGradient></defs><path transform="matrix(-1 0 0 -1 235.19 234.96)" d="M-50.32-.12H285.5v235.2H-50.32z" fill="url(#A)"/><g class="U"><path d="M-36.27 64.4s-5-10.77 4.56-14.5c1.24-4.15 1.66-18.23 16.57-18.23S-1.46 44.1-1.46 44.1s3.3-2.1 8.3 1.65C10.14 41.2 25.06 35 33.35 48c3.73.2 12.84 2.28 12.84 16.37z" opacity=".2"/><path d="M184.43 59.3s-2.7-14.22 19.85-12.3c2.15-3.5 15.3-8.72 19.85 3.66 5.37-.15 12.5.44 12.5 8.68z" opacity=".7"/><path d="M144.83 93.6s-3.83-20.4 28.5-17.72c3.08-5 22-12.5 28.5 5.27 7.7-.23 18 .62 18 12.45z" opacity=".1"/><path d="M65.1 60.37s-1.4-7.45 10.4-6.46c1.12-1.83 8-4.57 10.4 1.92 2.8-.1 6.54.22 6.54 4.54z" opacity=".7"/><path d="M174 46s1.9-10-14-8.72c-1.52-2.46-10.8-6.15-14 2.6-3.8-.1-8.83.3-8.83 6.13z" opacity=".4"/><path d="M17.68 54.28S20 42.1.67 43.7c-1.84-3-13.1-7.46-17 3.14-4.6-.13-10.7.38-10.7 7.43z"/><path d="M27.38 37.66s-3.1-6.7 2.84-9c.78-2.6 1-11.36 10.33-11.36s8.52 7.7 8.52 7.7 2.06-1.3 5.16 1c2.07-2.84 11.35-6.7 16.52 1.42 2.32.13 8 1.42 8 10.2z" opacity=".5"/><path d="M204.74 50.37s-4-8.7 3.68-11.7c1-3.34 1.33-14.7 13.36-14.7s11 10 11 10 2.68-1.67 6.7 1.33c2.67-3.67 14.7-8.68 21.38 1.84 3 .17 10.35 1.84 10.35 13.2zM226.2 70.4c0-2.13-.26-3.78-.53-3.78s-.5 1.65-.52 3.78c-2.3 0-4.08.24-4.08.5s1.8.46 4.08.5c0 2.12.25 3.77.52 3.77s.5-1.65.53-3.77c2.3 0 4.08-.24 4.08-.5s-1.8-.46-4.08-.5zM88 39.9c0-1.18-.14-2.1-.3-2.1s-.28.93-.3 2.1a5.46 5.46 0 0 0-2.27.27 5.27 5.27 0 0 0 2.27.27c0 1.2.15 2.1.3 2.1s.27-.92.3-2.1a5.23 5.23 0 0 0 2.27-.27A5.42 5.42 0 0 0 88 39.9zm98.13 72.68c0-1.2-.14-2.1-.3-2.1s-.28.92-.3 2.1a5.27 5.27 0 0 0-2.27.27 5.27 5.27 0 0 0 2.27.27c0 1.2.15 2.1.3 2.1s.27-.92.3-2.1a5.23 5.23 0 0 0 2.27-.27 5.23 5.23 0 0 0-2.27-.27zM36.65 88.66c0-2.13-.25-3.78-.52-3.78s-.5 1.65-.53 3.78c-2.3 0-4.07.23-4.07.48s1.78.46 4.07.5c0 2.13.26 3.78.53 3.78s.5-1.65.52-3.78c2.3 0 4.08-.23 4.08-.5s-1.73-.45-4.08-.48zM199.7 30.7c0-2.12-.25-3.78-.52-3.78s-.5 1.66-.53 3.78c-2.3 0-4.07.24-4.07.5s1.78.46 4.07.5c0 2.13.26 3.78.53 3.78s.5-1.65.52-3.78c2.3 0 4.08-.24 4.08-.5s-1.78-.46-4.08-.5zM39.42 31.8c0-2.13-.25-3.78-.52-3.78s-.5 1.65-.53 3.78c-2.3 0-4.08.23-4.08.48s1.8.46 4.08.5c0 2.13.26 3.78.53 3.78s.5-1.65.52-3.78c2.3 0 4.08-.23 4.08-.5s-1.78-.45-4.08-.48zm152.5-3.4a2.66 2.66 0 0 0-2.69-2.59h-.1a3.67 3.67 0 0 0-6.61.78 1.81 1.81 0 0 0-1.76 1.81zM23.65 29.58a4.12 4.12 0 0 0-4.17-4h-.15a5.67 5.67 0 0 0-10.23 1.2 2.8 2.8 0 0 0-2.72 2.8zM166 59.07a4.14 4.14 0 0 0-4.17-4h-.15a5.67 5.67 0 0 0-10.23 1.2 2.8 2.8 0 0 0-2.72 2.8z"/><path d="M85.84 105.6a21.93 21.93 0 0 0-28-19.54 21.92 21.92 0 0 0-29.34-5 28.26 28.26 0 0 0-45 12.9 14 14 0 0 0-13.35 11.59z" opacity=".1"/></g><path d="M-22.6 121.14h58.75v113.94H-22.6z" class="Z"/><path d="M.83 126.7h11.1v29.8H.83zm18.54 0h11.1v29.8h-11.1zM.83 172.97h11.1v29.8H.83zm18.54 0h11.1v29.8h-11.1z" class="W"/><path d="M2.7 128.25h7.63v12.72H2.7zm0 13.9h7.63v12.72H2.7zm18.4-13.9h7.63v12.72H21.1zm0 13.9h7.63v12.72H21.1z" class="X"/><path d="M36.1 148.55v-.67h-58.75v.67h3.4v15.83h-3.4v2H36.1v-2H32.6v-15.83zm-38.08 0h8.37v15.83H-2zm-.67 15.83h-7.7v-15.83h7.7zm9.7-15.83h8.6v15.83h-8.6zm9.27 0h7.36v15.83h-7.36zm-34.9 0h7.6v15.83h-7.57zm50.53 15.83h-7.6v-15.83h7.6z" class="Y"/><path d="M2.7 174.45h7.63v12.72H2.7zm0 13.9h7.63v12.72H2.7zm18.4-13.9h7.63v12.72H21.1zm0 13.9h7.63v12.72H21.1z" class="X"/><path d="M36 194.76v-.67h-58.73v.67h3.4v15.83h-3.4v2H36v-2h-3.46v-15.83zm-38.08 0h8.4v15.83h-8.37zm-.66 15.83h-7.7v-15.83h7.7zM7 194.76h8.6v15.83H7zm9.28 0h7.36v15.83h-7.38zm-34.92 0h7.57v15.83h-7.57zM31.9 210.6h-7.6v-15.83h7.6z" class="Y"/><path d="M-22.8 121.14h-6.33l8.16-16h57.2v16H-22.8z" class="V"/><path d="M209.1 77.93h20.04v99.45H209.1z" class="Y"/><path d="M221.17 83.12h4.08v5.73h-4.08z" class="V"/><path d="M213 83.12h4.08v5.73H213z" class="Z"/><path d="M221.17 91.15h4.08v5.73h-4.08zm-8.17 0h4.08v5.73H213zm8.17 8.02h4.08v5.73h-4.08z" class="V"/><path d="M213 99.17h4.08v5.73H213z" class="Z"/><path d="M221.17 107.66h4.08v5.73h-4.08zm-8.17 0h4.08v5.73H213zm8.17 8.02h4.08v5.73h-4.08z" class="U"/><path d="M213 115.68h4.08v5.73H213zm8.17 8.02h4.08v5.73h-4.08z" class="V"/><path d="M213 123.7h4.08v5.73H213z" class="Z"/><path d="M165.73 96.95h43.43v8.2h-43.43z" class="a"/><path d="M165.73 105.16h43.43v8.2h-43.43z" class="U"/><path d="M165.73 113.37h43.43v8.2h-43.43z" class="a"/><path d="M165.73 121.58h43.43v8.2h-43.43z" class="U"/><path d="M165.73 96.95l7.2-8.03h29.36l6.87 8.03h-43.43zM18.86 81.3h12.16v13.76H18.86z" fill="#f68360"/><path d="M24.94 75.55l-7.68 5.75h15.36l-7.68-5.75z" class="Y"/><path d="M16.48 95.06v1.92h2.38v8h1.12v-8h9.92v8h1.12v-8h1.94v-1.92H16.48z" class="c"/><path d="M110.5 116.82h77v118.4h-77z" class="b"/><path d="M121.1 141.4h10.55v15.42H121.1z" class="X"/><path d="M162.32 141.4h10.55v15.42h-10.55zm-20.62 0h10.54v15.42H141.7z" class="U"/><path d="M121.1 163.92h10.55v15.42H121.1zm41.22 0h10.55v15.42h-10.55z" class="X"/><path d="M141.7 163.92h10.54v15.42H141.7z" class="V"/><path d="M121.1 186.45h10.55v13.74H121.1z" class="U"/><path d="M141.7 186.45h10.54v13.74H141.7z" class="X"/><path d="M110.54 105.13h68.88l8.07 11.7h-77l.05-11.7zm0 51.7h76.95v1.38h-76.95zm0-23.43h76.95v1.38h-76.95zm0 46.02h76.95v1.38h-76.95z" fill="#ff9978"/><path d="M187.5 134.77h63.28v100.4H187.5z" class="X"/><path d="M196.1 141.4h14.86v17.45H196.1z" class="W"/><path d="M208.77 156.67H198.3V143.6h10.48z" class="U"/><path d="M227.64 141.4h14.85v17.45h-14.85z" class="W"/><path d="M240.3 156.67h-10.48V143.6h10.48z" class="V"/><path d="M196.1 164.8h14.86v17.45H196.1z" class="W"/><path d="M208.77 180.06H198.3v-13.08h10.48z" class="U"/><path d="M227.64 164.8h14.85v17.45h-14.85z" class="W"/><path d="M240.3 180.06h-10.48v-13.08h10.48z" class="U"/><path d="M187.5 129.44h63.28v5.33H187.5z" class="c"/><path d="M36.23 105.13h74.3v130.03h-74.3z" fill="#f68360"/><path d="M36.23 97h74.3v8.12h-74.3z" class="Y"/><path d="M65.14,142H54.58V122.14a5.28,5.28,0,0,1,5.28-5.28h0a5.27,5.27,0,0,1,5.28,5.28Z" class="V"/><path d="M51.62 142h16.6v2.94h-16.6z" class="a"/><path d="M92.06,142H81.5V122.14a5.27,5.27,0,0,1,5.28-5.28h0a5.28,5.28,0,0,1,5.28,5.28Z" class="U"/><path d="M78.53 142h16.6v2.94h-16.6z" class="a"/><path d="M65.14,185.92H54.58V166.05a5.29,5.29,0,0,1,5.28-5.28h0a5.28,5.28,0,0,1,5.28,5.28Z" class="U"/><path d="M51.62 185.92h16.6v2.94h-16.6z" class="a"/><path d="M92.06,185.92H81.5V166.05a5.28,5.28,0,0,1,5.28-5.28h0a5.29,5.29,0,0,1,5.28,5.28Z" class="U"/><path d="M78.53 185.92h16.6v2.94h-16.6z" class="a"/><path d="M53.98 92.93h13.98v3.94H53.98zM21.84 174.6H-13.4l2.47 4.22h62.7l2.47-4.22h-32.4zm-28.24 8H47v52.57H-6.4z" class="c"/><path d="M1.62 192.9h8.83v31.96H1.62zm14.28 0h8.83v31.96H15.9zm13.9 0h8.83v31.96H29.8z" class="U"/><path d="M-10.92 178.8h62.45v3.78h-62.45z" class="Y"/><path d="M1.62 192.9h8.83v11.83H1.62zm28.18 0h8.83v5.92H29.8zm-13.9 0h8.83v22.14H15.9z" class="W"/><path d="M152.6 190.92h85.16v44.25H152.6z" class="V"/><path d="M163.33 205.74h16.08v29.42h-16.08z" class="b"/><path d="M152.6 186.82h85.16v4.1H152.6z" class="Y"/><path d="M197.2 182.6h-47.76l3.18 4.23h85.18l3.18-4.23H197.2z" fill="#484f59"/><path d="M166.05 208.25h10.3v19.98h-10.3z" class="U"/><path d="M171.37 199l-12.05 6.74h24.1L171.37 199z" class="d"/><path d="M187.44 205.74h16.08v29.42h-16.08z" class="b"/><path d="M190.16 208.25h10.3v19.98h-10.3z" class="U"/><path d="M195.48 199l-12.05 6.74h24.1L195.48 199z" class="d"/><path d="M211.55 205.74h16.08v29.42h-16.08z" class="b"/><path d="M214.27 208.25h10.3v19.98h-10.3z" class="U"/><path d="M219.6 199l-12.05 6.74h24.1L219.6 199z" class="d"/><path d="M166.05 208.25h10.3v5.9h-10.3zm48.22 0h10.3v13.6h-10.3z" fill="#ff9978"/><path d="M55.86 204.04h88.53v31.12H55.86z" class="Z"/><path d="M63.43 215.6h47.1v10.1h-47.1z" class="W"/><path d="M116.42 215.6h19.56v10.1h-19.56z" class="X"/><path d="M86.76 215.6h.45v10.1h-.45z" class="Z"/><path d="M55.86 200.05h88.53v4H55.86z" fill="#232e38"/></svg>