<svg xmlns="http://www.w3.org/2000/svg" xmlns:xlink="http://www.w3.org/1999/xlink" viewBox="0 0 235.19 235.19"><defs><style>.cls-1{fill:url(#linear-gradient);}.cls-2,.cls-3,.cls-4,.cls-5,.cls-6,.cls-7{fill:#fff;}.cls-2{opacity:0.2;}.cls-3{opacity:0.7;}.cls-4{opacity:0.1;}.cls-5{opacity:0.4;}.cls-7{opacity:0.5;}.cls-8{fill:#f2f2f2;}.cls-9{fill:#91d3d9;}.cls-10{fill:#c4edf1;}.cls-11{fill:#656a73;}.cls-12{fill:#ffd680;}.cls-13{fill:#e6e5e5;}.cls-14{fill:#f68360;}.cls-15{fill:#353f49;}.cls-16{fill:#cccbca;}.cls-17{fill:#ff9978;}.cls-18{fill:#484f59;}.cls-19{fill:#474f59;}.cls-20{fill:#232e38;}</style><linearGradient id="linear-gradient" x1="117.6" y1="235.07" x2="117.6" y2="-0.12" gradientTransform="translate(235.19 234.96) rotate(-180)" gradientUnits="userSpaceOnUse"><stop offset="0" stop-color="#e9eceb"/><stop offset="1" stop-color="#ffcbb7"/></linearGradient></defs><g id="fog"><rect class="cls-1" x="-50.32" y="-0.12" width="335.82" height="235.19" transform="translate(235.19 234.96) rotate(180)"/><path class="cls-2" d="M-36.27,64.41s-5-10.77,4.56-14.5c1.24-4.15,1.66-18.23,16.57-18.23S-1.46,44.11-1.46,44.11,1.85,42,6.83,45.76C10.14,41.21,25.06,35,33.35,48c3.73.21,12.84,2.28,12.84,16.37Z"/><path class="cls-3" d="M184.43,59.3S181.74,45.08,204.28,47c2.15-3.49,15.29-8.72,19.85,3.66,5.37-.15,12.51.44,12.51,8.68Z"/><path class="cls-4" d="M144.83,93.59S141,73.18,173.33,75.87c3.08-5,22-12.51,28.5,5.27,7.7-.23,18,.62,18,12.45Z"/><path class="cls-3" d="M65.11,60.37S63.7,52.92,75.5,53.91c1.12-1.83,8-4.57,10.4,1.92,2.81-.09,6.54.22,6.54,4.54Z"/><path class="cls-5" d="M174,46s1.9-10-14-8.72c-1.52-2.46-10.8-6.15-14,2.59-3.79-.11-8.83.31-8.83,6.13Z"/><path class="cls-6" d="M17.68,54.28S20,42.1.67,43.71c-1.84-3-13.1-7.46-17,3.14-4.6-.13-10.71.38-10.71,7.43Z"/><path class="cls-7" d="M27.38,37.66s-3.09-6.71,2.84-9c.78-2.59,1-11.36,10.33-11.36S49.07,25,49.07,25s2.06-1.29,5.16,1c2.07-2.84,11.35-6.71,16.52,1.42,2.32.13,8,1.42,8,10.2Z"/><path class="cls-6" d="M204.74,50.37s-4-8.69,3.68-11.7c1-3.34,1.33-14.7,13.36-14.7s11,10,11,10,2.68-1.67,6.69,1.33c2.67-3.67,14.7-8.68,21.38,1.84,3,.17,10.35,1.84,10.35,13.2Z"/><path class="cls-6" d="M226.19,70.4c0-2.13-.26-3.78-.53-3.78s-.49,1.65-.52,3.78c-2.29,0-4.08.24-4.08.49s1.79.46,4.08.49c0,2.12.25,3.77.52,3.77s.5-1.65.53-3.77c2.29,0,4.08-.24,4.08-.49S228.48,70.43,226.19,70.4Z"/><path class="cls-6" d="M88,39.9c0-1.18-.14-2.11-.29-2.11s-.28.93-.3,2.11a5.46,5.46,0,0,0-2.27.27,5.27,5.27,0,0,0,2.27.27c0,1.19.15,2.11.3,2.11s.27-.92.29-2.11a5.23,5.23,0,0,0,2.27-.27A5.42,5.42,0,0,0,88,39.9Z"/><path class="cls-6" d="M186.13,112.58c0-1.19-.14-2.11-.29-2.11s-.28.92-.3,2.11a5.27,5.27,0,0,0-2.27.27,5.27,5.27,0,0,0,2.27.27c0,1.19.15,2.11.3,2.11s.27-.92.29-2.11a5.23,5.23,0,0,0,2.27-.27A5.23,5.23,0,0,0,186.13,112.58Z"/><path class="cls-6" d="M36.65,88.66c0-2.13-.25-3.78-.52-3.78s-.5,1.65-.53,3.78c-2.29,0-4.07.23-4.07.48s1.78.46,4.07.49c0,2.13.26,3.78.53,3.78s.49-1.65.52-3.78c2.3,0,4.08-.23,4.08-.49S39,88.69,36.65,88.66Z"/><path class="cls-6" d="M199.7,30.71c0-2.12-.25-3.78-.52-3.78s-.5,1.66-.53,3.78c-2.29,0-4.07.24-4.07.49s1.78.46,4.07.49c0,2.13.26,3.78.53,3.78s.49-1.65.52-3.78c2.3,0,4.08-.24,4.08-.49S202,30.74,199.7,30.71Z"/><path class="cls-6" d="M39.42,31.81c0-2.13-.25-3.78-.52-3.78s-.5,1.65-.53,3.78c-2.29,0-4.08.23-4.08.48s1.79.46,4.08.49c0,2.13.26,3.78.53,3.78s.49-1.65.52-3.78c2.3,0,4.08-.23,4.08-.49S41.72,31.84,39.42,31.81Z"/><path class="cls-6" d="M191.93,28.4a2.66,2.66,0,0,0-2.69-2.59h-.11a3.67,3.67,0,0,0-6.61.78,1.81,1.81,0,0,0-1.76,1.81Z"/><path class="cls-6" d="M23.65,29.58a4.12,4.12,0,0,0-4.17-4h-.15A5.67,5.67,0,0,0,9.1,26.78a2.8,2.8,0,0,0-2.72,2.8Z"/><path class="cls-6" d="M166,59.07a4.14,4.14,0,0,0-4.17-4h-.15a5.67,5.67,0,0,0-10.23,1.2,2.8,2.8,0,0,0-2.72,2.8Z"/><path class="cls-4" d="M85.84,105.59a21.93,21.93,0,0,0-28-19.54,21.92,21.92,0,0,0-29.34-5,28.26,28.26,0,0,0-45,12.9,14,14,0,0,0-13.35,11.59Z"/></g><g id="Layer_1" data-name="Layer 1"><rect class="cls-8" x="-22.59" y="121.14" width="58.75" height="113.94"/><rect class="cls-9" x="0.83" y="126.7" width="11.1" height="29.81"/><rect class="cls-9" x="19.37" y="126.7" width="11.1" height="29.81"/><rect class="cls-9" x="0.83" y="172.97" width="11.1" height="29.81"/><rect class="cls-9" x="19.37" y="172.97" width="11.1" height="29.81"/><rect class="cls-10" x="2.69" y="128.25" width="7.63" height="12.72"/><rect class="cls-10" x="2.69" y="142.15" width="7.63" height="12.72"/><rect class="cls-10" x="21.1" y="128.25" width="7.63" height="12.72"/><rect class="cls-10" x="21.1" y="142.15" width="7.63" height="12.72"/><path class="cls-11" d="M36.09,148.55v-.67H-22.66v.67h3.4v15.83h-3.4v2H36.09v-2H32.61V148.55Zm-38.08,0H6.38v15.83H-2Zm-.67,15.83h-7.7V148.55h7.7Zm9.71-15.83h8.61v15.83H7.05Zm9.27,0h7.36v15.83H16.32Zm-34.91,0H-11v15.83h-7.57Zm50.53,15.83H24.35V148.55h7.59Z"/><rect class="cls-10" x="2.69" y="174.45" width="7.63" height="12.72"/><rect class="cls-10" x="2.69" y="188.36" width="7.63" height="12.72"/><rect class="cls-10" x="21.1" y="174.45" width="7.63" height="12.72"/><rect class="cls-10" x="21.1" y="188.36" width="7.63" height="12.72"/><path class="cls-11" d="M36,194.76v-.67H-22.73v.67h3.4v15.83h-3.4v2H36v-2H32.54V194.76Zm-38.08,0H6.31v15.83H-2.06Zm-.66,15.83h-7.7V194.76h7.7ZM7,194.76h8.61v15.83H7Zm9.28,0h7.36v15.83H16.26Zm-34.92,0h7.57v15.83h-7.57Zm50.53,15.83H24.28V194.76h7.59Z"/><polygon class="cls-12" points="-22.8 121.14 -29.13 121.14 -20.97 105.13 36.23 105.13 36.23 121.14 -22.8 121.14"/><rect class="cls-11" x="209.11" y="77.93" width="20.04" height="99.45"/><rect class="cls-12" x="221.17" y="83.12" width="4.08" height="5.73"/><rect class="cls-8" x="213" y="83.12" width="4.08" height="5.73"/><rect class="cls-12" x="221.17" y="91.15" width="4.08" height="5.73"/><rect class="cls-12" x="213" y="91.15" width="4.08" height="5.73"/><rect class="cls-12" x="221.17" y="99.17" width="4.08" height="5.73"/><rect class="cls-8" x="213" y="99.17" width="4.08" height="5.73"/><rect class="cls-6" x="221.17" y="107.66" width="4.08" height="5.73"/><rect class="cls-6" x="213" y="107.66" width="4.08" height="5.73"/><rect class="cls-6" x="221.17" y="115.68" width="4.08" height="5.73"/><rect class="cls-12" x="213" y="115.68" width="4.08" height="5.73"/><rect class="cls-12" x="221.17" y="123.71" width="4.08" height="5.73"/><rect class="cls-8" x="213" y="123.71" width="4.08" height="5.73"/><rect class="cls-13" x="165.73" y="96.95" width="43.43" height="8.21"/><rect class="cls-6" x="165.73" y="105.16" width="43.43" height="8.21"/><rect class="cls-13" x="165.73" y="113.37" width="43.43" height="8.21"/><rect class="cls-6" x="165.73" y="121.58" width="43.43" height="8.21"/><polygon class="cls-14" points="165.73 96.95 172.93 88.92 202.29 88.92 209.16 96.95 165.73 96.95"/><rect class="cls-14" x="18.86" y="81.3" width="12.16" height="13.76"/><polygon class="cls-11" points="24.94 75.55 17.26 81.3 24.94 81.3 32.62 81.3 24.94 75.55"/><polygon class="cls-15" points="16.48 95.06 16.48 96.98 18.86 96.98 18.86 104.98 19.98 104.98 19.98 96.98 29.9 96.98 29.9 104.98 31.02 104.98 31.02 96.98 32.96 96.98 32.96 95.06 16.48 95.06"/></g><g id="items"><rect class="cls-16" x="110.49" y="116.82" width="77" height="118.39"/><rect class="cls-10" x="121.09" y="141.4" width="10.55" height="15.42"/><rect class="cls-6" x="162.32" y="141.4" width="10.55" height="15.42"/><rect class="cls-6" x="141.7" y="141.4" width="10.54" height="15.42"/><rect class="cls-10" x="121.09" y="163.92" width="10.55" height="15.42"/><rect class="cls-10" x="162.32" y="163.92" width="10.55" height="15.42"/><rect class="cls-12" x="141.7" y="163.92" width="10.54" height="15.42"/><rect class="cls-6" x="121.09" y="186.45" width="10.55" height="13.74"/><rect class="cls-10" x="141.7" y="186.45" width="10.54" height="13.74"/><polygon class="cls-17" points="110.54 105.13 179.42 105.13 187.49 116.82 110.49 116.82 110.54 105.13"/><rect class="cls-17" x="110.54" y="156.83" width="76.95" height="1.38"/><rect class="cls-17" x="110.54" y="133.39" width="76.95" height="1.38"/><rect class="cls-17" x="110.54" y="179.42" width="76.95" height="1.38"/><rect class="cls-10" x="187.49" y="134.77" width="63.28" height="100.4"/><rect class="cls-9" x="196.1" y="141.41" width="14.86" height="17.45"/><rect class="cls-6" x="198.28" y="143.59" width="10.48" height="13.08" transform="translate(407.05 300.26) rotate(180)"/><rect class="cls-9" x="227.64" y="141.41" width="14.85" height="17.45"/><rect class="cls-12" x="229.82" y="143.59" width="10.48" height="13.08" transform="translate(470.13 300.26) rotate(180)"/><rect class="cls-9" x="196.1" y="164.8" width="14.86" height="17.45"/><rect class="cls-6" x="198.28" y="166.99" width="10.48" height="13.08" transform="translate(407.05 347.05) rotate(180)"/><rect class="cls-9" x="227.64" y="164.8" width="14.85" height="17.45"/><rect class="cls-6" x="229.82" y="166.99" width="10.48" height="13.08" transform="translate(470.13 347.05) rotate(180)"/><rect class="cls-15" x="187.49" y="129.44" width="63.28" height="5.33"/><rect class="cls-14" x="36.23" y="105.13" width="74.31" height="130.03"/><rect class="cls-11" x="36.23" y="97.01" width="74.31" height="8.12"/><path class="cls-12" d="M65.14,142H54.58V122.14a5.28,5.28,0,0,1,5.28-5.28h0a5.27,5.27,0,0,1,5.28,5.28Z"/><rect class="cls-13" x="51.62" y="142.01" width="16.61" height="2.94"/><path class="cls-6" d="M92.06,142H81.5V122.14a5.27,5.27,0,0,1,5.28-5.28h0a5.28,5.28,0,0,1,5.28,5.28Z"/><rect class="cls-13" x="78.53" y="142.01" width="16.61" height="2.94"/><path class="cls-6" d="M65.14,185.92H54.58V166.05a5.29,5.29,0,0,1,5.28-5.28h0a5.28,5.28,0,0,1,5.28,5.28Z"/><rect class="cls-13" x="51.62" y="185.92" width="16.61" height="2.94"/><path class="cls-6" d="M92.06,185.92H81.5V166.05a5.28,5.28,0,0,1,5.28-5.28h0a5.29,5.29,0,0,1,5.28,5.28Z"/><rect class="cls-13" x="78.53" y="185.92" width="16.61" height="2.94"/><rect class="cls-15" x="53.98" y="92.93" width="13.98" height="3.94"/><polygon class="cls-15" points="21.84 174.59 18.77 174.59 -13.39 174.59 -10.92 178.81 18.77 178.81 21.84 178.81 51.78 178.81 54.25 174.59 21.84 174.59"/><rect class="cls-15" x="-6.39" y="182.59" width="53.39" height="52.57"/><rect class="cls-6" x="1.62" y="192.9" width="8.83" height="31.96"/><rect class="cls-6" x="15.89" y="192.9" width="8.83" height="31.96"/><rect class="cls-6" x="29.8" y="192.9" width="8.83" height="31.96"/><rect class="cls-11" x="-10.92" y="178.81" width="62.45" height="3.78"/><rect class="cls-9" x="1.62" y="192.9" width="8.83" height="11.83"/><rect class="cls-9" x="29.8" y="192.9" width="8.83" height="5.92"/><rect class="cls-9" x="15.89" y="192.9" width="8.83" height="22.14"/><rect class="cls-12" x="152.61" y="190.92" width="85.16" height="44.25"/><rect class="cls-16" x="163.33" y="205.74" width="16.08" height="29.42"/><rect class="cls-11" x="152.61" y="186.82" width="85.16" height="4.1"/><polygon class="cls-18" points="197.2 182.59 193.22 182.59 149.44 182.59 152.62 186.82 193.22 186.82 197.2 186.82 237.8 186.82 240.98 182.59 197.2 182.59"/><rect class="cls-6" x="166.05" y="208.25" width="10.3" height="19.98"/><polygon class="cls-19" points="171.37 199 159.32 205.74 163.33 205.74 171.37 205.74 179.42 205.74 183.43 205.74 171.37 199"/><rect class="cls-16" x="187.44" y="205.74" width="16.08" height="29.42"/><rect class="cls-6" x="190.16" y="208.25" width="10.3" height="19.98"/><polygon class="cls-19" points="195.48 199 183.43 205.74 187.44 205.74 195.48 205.74 203.53 205.74 207.54 205.74 195.48 199"/><rect class="cls-16" x="211.55" y="205.74" width="16.08" height="29.42"/><rect class="cls-6" x="214.27" y="208.25" width="10.3" height="19.98"/><polygon class="cls-19" points="219.59 199 207.54 205.74 211.55 205.74 219.59 205.74 227.64 205.74 231.65 205.74 219.59 199"/><rect class="cls-17" x="166.05" y="208.25" width="10.3" height="5.9"/><rect class="cls-17" x="214.27" y="208.25" width="10.3" height="13.59"/><rect class="cls-8" x="55.86" y="204.04" width="88.53" height="31.12"/><rect class="cls-9" x="63.43" y="215.61" width="47.1" height="10.09"/><rect class="cls-10" x="116.42" y="215.61" width="19.56" height="10.09"/><rect class="cls-8" x="86.76" y="215.61" width="0.45" height="10.09"/><rect class="cls-20" x="55.86" y="200.05" width="88.53" height="4"/></g></svg>