<svg xmlns="http://www.w3.org/2000/svg" xmlns:xlink="http://www.w3.org/1999/xlink" viewBox="0 0 1351.37 418.22" xmlns:v="https://vecta.io/nano"><style><![CDATA[.L,.M,.N,.O,.E,.H{isolation:isolate}.Q{fill:#263238}.R{fill:#ebebeb}.S{fill:#ff725e}.T{fill:#f5f5f5}.U{fill:#455a64}.V{fill:#ffbe9d}.W{fill:#e0e0e0}.X{fill:#fafafa}]]></style><path d="M1032.73 414.83H301.1v.36h731.63z" class="W"/><path d="M522.4 141.85l54.15-41.5v314.47H522.4z" class="T"/><path d="M604.65 121.63l-28.1-21.24v314.43h28.1z" class="R"/><path d="M601.3 414.83h77.07V182.1H601.3z" class="T"/><path d="M718.37 182.1h-40v232.73h40z" class="R"/><path d="M611.7 182.1h66.67v-20.17H611.7z" class="T"/><g class="R"><path d="M611.7 182.1h66.67v-4.52H611.7z"/><path d="M708.07 161.93h-29.7v20.13h29.7z"/></g><path d="M622.06 161.93h56.32v-20.1h-56.32z" class="T"/><g class="R"><path d="M622.06 161.93h56.32v-4.5h-56.32z"/><path d="M697.6 141.85h-19.23v20.08h19.23zm-35.93-28.15h-3.73v28.12h3.73z"/></g><path d="M705.6 414.83h56.27V217.3H705.6z" class="T"/><path d="M791.08 217.3h-29.2v197.52h29.2z" class="R"/><path d="M441.83 192.98l42.68-11v232.85h-42.68z" class="T"/><path d="M506.67 181.93h-22.15v232.9h22.15z" class="R"/><path d="M806.53 414.8h38.87V217.74h-38.87z" class="T"/><path d="M865.6 269.46l-20.2-51.7v197.07h20.2z" class="R"/><path d="M853.88 414.8h31.72V264.57h-31.72z" class="T"/><g class="R"><path d="M902.1 296.67l-16.5-32.12V414.8h16.46z"/><path d="M972.73 414.83H433.35s116.4-29.27 172.4-55.6 65.77-14.85 98.8 4.18 64.6 18.75 110.5-2c112.15-50.6 109.9 35.54 157.7 53.4z"/></g><path d="M324.7 414.83h577.5s-34.13-.1-101.94-26.46-95.12-23.4-135.1-4.38-47.3-19.18-146.32-40.8C395.6 316.33 375.2 414.82 324.7 414.82z" class="W"/><path d="M772.14 89.78a46.89 46.89 0 0 0-2.121-86.622A46.89 46.89 0 0 0 710.29 65.93c10.48 23.678 38.17 34.377 61.85 23.9z" class="T"/><path d="M394.6 45.24c-8.5-18.34-1.77-31.4 19-31.4 13 0 29.14 5.13 44.84 13.5 1.77-4.77 6.78-7.62 14.82-7.62 14.16 0 33.65 8.78 49 21.3 3.7-2.8 9.05-4.48 16-4.76 13.55-.55 29.95 4.52 44.25 12.78a8.67 8.67 0 0 1 6.29-2.37c7.8-.32 18.36 4.8 23.6 11.43l.9 1.22H384.13c-7.3-6.5.68-13.8 10.48-14.07zm338.68 39.2a18.43 18.43 0 0 1 2-.11c-.62-6.8 3-11.15 10.42-11.15 5.44 0 12.1 2.26 18.9 6.1-2-13.18 4.27-21.8 18.36-21.8 11.4 0 25.77 5.6 40 14.63 1.25-5.18 5.44-8.28 12.5-8.28 12.37 0 29.94 9.6 44 23.1 3-3 7.62-4.92 13.62-5.18 11.8-.6 26.34 4.9 39.34 13.88a6 6 0 0 1 2.35-2 6.2 6.2 0 0 1 3-.63c6.45-.34 15.32 4.62 20.5 11.26H722.92c-5.5-10-1.08-18.8 10.36-19.9z" class="R"/><path d="M1323.76 328.14H953.24v54.4h370.52z" class="S"/><path class="E" d="M1323.76 328.14H953.24v54.4h370.52z" opacity=".25"/><g class="Q"><path d="M1005.44 417.87a35.76 35.76 0 0 0 21.149-62.608 35.76 35.76 0 0 0-59.209 29.348 35.74 35.74 0 0 0 38.06 33.26h0z"/><path d="M967.32 381.6v.1c-.095 19.605 15.626 35.625 35.23 35.9s35.766-15.3 36.22-34.9v-.1z"/></g><path d="M977.95 381.83c-.205 11.98 8.08 22.433 19.79 24.97s23.58-3.55 28.35-14.54 1.114-23.818-8.734-30.64-23.144-5.737-31.756 2.59a25.09 25.09 0 0 0-7.61 17.62z" class="X"/><path d="M1003.38 357.1c-13.847-.178-25.226 10.884-25.44 24.73l50.15.73c.19-13.856-10.874-25.25-24.73-25.47z" class="W"/><g class="Q"><path d="M987.76 381.98c-.102 7.847 5.765 14.493 13.564 15.364s14.988-4.315 16.62-11.99-2.823-15.34-10.302-17.717S992.1 368.94 989 376.15a15 15 0 0 0-1.24 5.83zm290.57 35.88a35.76 35.76 0 0 0 21.778-62.387A35.76 35.76 0 0 0 1240.6 384.2h0c1.143 19.7 18.04 34.766 37.75 33.64z"/><path d="M1240.52 381.6v.1c-.276 19.733 15.497 35.954 35.23 36.23s35.954-15.497 36.23-35.23v-.1z"/></g><path d="M1251.16 381.83c-.177 11.97 8.126 22.398 19.832 24.905s23.552-3.604 28.294-14.596 1.056-23.803-8.8-30.596-23.14-5.676-31.725 2.667a25.09 25.09 0 0 0-7.6 17.62z" class="X"/><path d="M1276.6 357.1c-13.854-.195-25.243 10.877-25.44 24.73l50.15.73c.184-13.846-10.864-25.234-24.7-25.47z" class="W"/><path d="M1260.94 381.98a15.34 15.34 0 0 0 29.934 5.005 15.34 15.34 0 0 0-27.204-13.455 15.28 15.28 0 0 0-2.73 8.45z" class="Q"/><path d="M1049.87 297.56s-52.6 3.93-72.13 8.26c-13.77 3.08-40.25 8.4-39.93 25.08l2.1 12s-9.84 4.5-9.84 16-2.4 29.24 20.56 30c3.78.1 11 0 11 0s-4.4-48.92 40.5-50.35c45.67-1.46 42.63 49.88 42.63 49.88h190.6s-7.86-50 41.3-50.15 41.67 50.45 41.67 50.45 18.1 1.57 26.55-13.64 6.24-26.06 6.24-26.06l-.3-9.62a6.21 6.21 0 0 0-6-6s3.3-24.2-1.77-28.4-32.66-29.5-32.66-29.5l1.33-.8a3.09 3.09 0 0 0 1.14-1.29 3 3 0 0 0 .29-1.7 3.11 3.11 0 0 0-2.1-2.58l-36.1-12.45a8.59 8.59 0 0 0-2.26-.48c-3-.23-11.15-.75-26.28-.9-18.42-.2-91.57 0-91.57 0s-25.18 2.06-39.2 8.26c-14.7 6.53-65.75 34.12-65.75 34.12z" class="S"/><path class="H" d="M943.44 357.5c-2-.4-4.84-.43-6.3.86a6 6 0 0 0-1.54 3.93 17.19 17.19 0 0 0 .14 5.9 7 7 0 0 0 3.34 4.69 4.62 4.62 0 0 0 5.49-.67c1.25-1.33 1.38-3.35 1.34-5.12a41.31 41.31 0 0 0-.32-7.29 3.37 3.37 0 0 0-.66-1.48 1.94 1.94 0 0 0-1.52-.91" opacity=".16"/><path d="M939.95 342.93c5.57 0 11-.3 16.57-.67a1.83 1.83 0 0 0 2.17-1.42h0a2.74 2.74 0 0 0 .1-1.06c0-2.95-.13-6.4-2.4-8.36a9.07 9.07 0 0 0-5.12-1.72 33.09 33.09 0 0 0-13.44 1.23z" class="X"/><path d="M1055.92 386.8a3.84 3.84 0 0 0 0-.48c0-.33-.06-.8-.1-1.4l-.3-5.4-.62-8.52a66.28 66.28 0 0 0-2-11.11 50.55 50.55 0 0 0-5.38-12.53 39.29 39.29 0 0 0-10.4-11.61c-9-6.42-21.18-10-33.92-10.2s-24.92 3.85-33.7 10.62a49.51 49.51 0 0 0-10.89 11.17 52.55 52.55 0 0 0-6.4 12 49.26 49.26 0 0 0-2.7 10.95 44.77 44.77 0 0 0-.33 8.5 41.45 41.45 0 0 0 .67 5.34l.25 1.38a4.54 4.54 0 0 1 .07.47 1.69 1.69 0 0 0-.1-.45l-.3-1.34a43.53 43.53 0 0 1-.72-5.35 46.78 46.78 0 0 1 .27-8.53 49.06 49.06 0 0 1 2.62-11 52.66 52.66 0 0 1 6.4-12.12 49.1 49.1 0 0 1 11-11.26c8.85-6.8 21-10.82 33.88-10.7s25 3.8 34.1 10.3a39.56 39.56 0 0 1 10.46 11.7 50.59 50.59 0 0 1 5.34 12.63 65.85 65.85 0 0 1 2 11.16c.33 3.34.46 6.2.57 8.52l.23 5.4a9.05 9.05 0 0 0 .06 1.41 3.2 3.2 0 0 0 0 .44z" fill="#fff"/><g class="Q"><path d="M1057.92 387.64v-1.58l-.14-4.62-1.48-52.85a27.18 27.18 0 0 1 .19-4.23l.3-2.17.44-2.16a44 44 0 0 1 3-8.56 43 43 0 0 1 4.91-8.11l33-20.82 8.92-5.6a68.74 68.74 0 0 1 9.44-5.28 97.59 97.59 0 0 1 10.3-4.15l5.34-1.65a49.14 49.14 0 0 1 5.48-1.33 123.86 123.86 0 0 1 21.28-2.68 197.56 197.56 0 0 1 20.65.07h.2v.2l-8.85 39.7a44.76 44.76 0 0 0-4 8.52 23.58 23.58 0 0 0-1.34 8.85l.4 8.6.15 8.1.22 27.18v17.52l-.1-17.5-.3-27.2-.17-8.1s-.17-5.65-.4-8.6a23.82 23.82 0 0 1 1.33-8.93 44.84 44.84 0 0 1 4-8.6v.05l8.85-39.7.15.2a201.42 201.42 0 0 0-20.56 0 123.17 123.17 0 0 0-21.21 2.67l-5.46 1.34s-3.58 1-5.35 1.64a98.36 98.36 0 0 0-10.29 4.16 70 70 0 0 0-9.39 5.23l-8.92 5.6-33.2 20.68a44.86 44.86 0 0 0-7.87 16.57c-1.5 5.73-.75 11.36-.73 16.62l.67 27.2.4 17.52c0 2 .07 3.57.1 4.62v1.18a1.51 1.51 0 0 1 .07.38z"/><path d="M1179.17 263.02h1.22l3.54-.1 57.57-1v.07l6.2 7.6 19.7 24.24a14.83 14.83 0 0 1 1.67 2.68 14 14 0 0 1 1.31 5.61 13.81 13.81 0 0 1-1.06 5.67l-2 4.68-8.25 19-.16.34.12-.35.43-1 1.6-3.87 6-14.24c1.14-3 3.16-6.2 3-10.08a13.69 13.69 0 0 0-1.34-5.69 14.92 14.92 0 0 0-1.63-2.6l-2-2.46-23.96-29.34.13.06-57.5.82h-4.74zm-22.42 59a3.08 3.08 0 0 0 .53-.08 3.72 3.72 0 0 0 1.4-.56 3.57 3.57 0 0 0 1.43-1.86 4.05 4.05 0 0 0 .19-1.47 3.83 3.83 0 0 0-.41-1.59 3.69 3.69 0 0 0-1.29-1.37 3.65 3.65 0 0 0-1.8-.51H1142a3.54 3.54 0 0 0-3.48 3.1 4.07 4.07 0 0 0 .43 2.37 3.54 3.54 0 0 0 1.71 1.51 5.3 5.3 0 0 0 2.23.27h6.1l5.7.06h1.54a2.44 2.44 0 0 1 .54 0h-2.08l-5.7.06h-7.23a3.91 3.91 0 0 1-1.18-.28 3.74 3.74 0 0 1-1.88-1.65 4.17 4.17 0 0 1-.48-2.57 3.85 3.85 0 0 1 3.81-3.41h14.82a3.92 3.92 0 0 1 2 .57 3.73 3.73 0 0 1 1.35 1.49 3.86 3.86 0 0 1 .43 1.7 4.65 4.65 0 0 1-.22 1.53 3.83 3.83 0 0 1-1.55 1.91 3.32 3.32 0 0 1-1.46.51 2.88 2.88 0 0 1-.59.27zm98.85 0a3.08 3.08 0 0 0 .53-.08 3.72 3.72 0 0 0 1.4-.56 3.6 3.6 0 0 0 1.42-1.86 4.09 4.09 0 0 0 .2-1.47 3.84 3.84 0 0 0-.42-1.59 3.56 3.56 0 0 0-3.08-1.88h-14.82a3.53 3.53 0 0 0-3.47 3.1 4.07 4.07 0 0 0 .43 2.37 3.54 3.54 0 0 0 1.71 1.51 5.28 5.28 0 0 0 2.23.27h6.1l5.7.06h1.54a2.44 2.44 0 0 1 .54 0h-2.08l-5.7.06h-7.22a4.39 4.39 0 0 1-1.19-.28 3.92 3.92 0 0 1-1.88-1.65 4.17 4.17 0 0 1-.47-2.57 3.85 3.85 0 0 1 3.8-3.41h14.74a4 4 0 0 1 2 .57 3.84 3.84 0 0 1 1.78 3.19 4.4 4.4 0 0 1-.22 1.53 3.79 3.79 0 0 1-1.55 1.91 3.2 3.2 0 0 1-1.46.51 3.06 3.06 0 0 1-.58.27z"/></g><path d="M1342.22 305.93h-19.77a7.29 7.29 0 0 0-7.29 7 7.48 7.48 0 0 0 .61 3.2l7.75 17.62 19.8-.2s4.23-22.34-1.08-27.66z" class="X"/><path d="M1067.67 303.4l102-1.9 66.38-1.2 21.9-12.65a3.46 3.46 0 0 0 1.06-1 3.28 3.28 0 0 0 .56-1.3 3.14 3.14 0 0 0 0-1.43 3.24 3.24 0 0 0-.61-1.3l-13.63-17.92a7.57 7.57 0 0 0-6-2.95l-74.25-.6s-28-1.62-50 10.7c-23.2 13-47.46 31.54-47.46 31.54z" class="Q"/><path d="M1114.42 262.93s5.1 2.33 1.77 4.5l-55 34.75-11.9-5.38c21.07-11.66 42.3-23.07 65.13-33.86z" class="U"/><path d="M1062.87 303.05l-.32.07-1 .22-3.62.75-13.33 2.5c-11.36 2-27.06 4.23-44.55 5.73l-12.78 1-11.9.9a102.68 102.68 0 0 0-19.84 3.4 55.51 55.51 0 0 0-12.44 5.17 28.86 28.86 0 0 0-3.15 2l-.82.5-.3.17.27-.2.8-.55c.72-.46 1.7-1.2 3.13-2a55.2 55.2 0 0 1 12.5-5.34 100.94 100.94 0 0 1 19.89-3.48c3.77-.37 7.77-.62 11.9-.88l12.78-1a574.68 574.68 0 0 0 44.53-5.63L1058 304l4.62-.85zm287.24 45.74c0 .1-6.8.18-15.18.18s-15.2-.12-15.2-.18 6.78-.17 15.18-.17zm-124.37 17.34c0 .1-38.36.18-85.7.18s-85.7-.08-85.7-.18 38.36-.18 85.7-.18zm-268.66-16.8c0 .1-5.43.17-12.13.17s-12.1-.07-12.1-.17 5.43-.17 12.1-.17l12.13.17z" class="Q"/><path d="M1309.9 274.77s-4.56 5.1-2.75 8.85 20.3 16.86 20.3 16.86l13.42 2.52zm-127.7-9.14l-3 32.65 54.1-1.55 21.77-12.68-14.1-18.42zm-101.7 34.3s32.6-23.6 45.47-28.25c12.4-4.53 18.88-5.66 30.56-6 11.14-.32 17.93 0 17.93 0l-8.62 33.2z" class="U"/><path d="M1075.7 300.02a5.86 5.86 0 0 1 .79-2.89 5.72 5.72 0 0 1 2.13-2.1l7.5-4.2a14 14 0 0 1 7-1.83 14.23 14.23 0 0 1 4.44.71 8.11 8.11 0 0 1 5.46 7.47 8.39 8.39 0 0 1-.54 3.25 8.25 8.25 0 0 1-7.71 5.31h-13.36a5.75 5.75 0 0 1-5.71-5.71z" class="S"/><path d="M1075.7 300.02a5.93 5.93 0 0 0 .1.72 5.7 5.7 0 0 0 .67 2 5.92 5.92 0 0 0 2.29 2.26 5.7 5.7 0 0 0 2 .6 19.58 19.58 0 0 0 2.3.05h11.43a8.58 8.58 0 0 0 3.17-.52 8.14 8.14 0 0 0 4.73-4.68 8.37 8.37 0 0 0 .5-3.54 7.91 7.91 0 0 0-3.33-6 8.89 8.89 0 0 0-3.09-1.34 14.15 14.15 0 0 0-9.09.88c-.87.4-1.66.88-2.44 1.3l-2.24 1.24-3.83 2.13a5.66 5.66 0 0 0-2.29 2.26 5.55 5.55 0 0 0-.67 2l-.1.72a4.45 4.45 0 0 1 0-.73 5.47 5.47 0 0 1 .62-2 5.79 5.79 0 0 1 2.31-2.37l6-3.44 2.46-1.34a14.36 14.36 0 0 1 9.29-1 8.79 8.79 0 0 1 3.22 1.34 8.42 8.42 0 0 1 3.52 6.23 8.6 8.6 0 0 1-.52 3.69 8.4 8.4 0 0 1-2 2.95 8.72 8.72 0 0 1-3 1.91 9 9 0 0 1-3.3.53h-11.42a20.08 20.08 0 0 1-2.33-.07 5.8 5.8 0 0 1-4.33-3 5.65 5.65 0 0 1-.61-2 6.93 6.93 0 0 1-.1-.78z" class="Q"/><path d="M1326.9 387.14v-.46a8.33 8.33 0 0 1 .09-1.34c.1-.57.1-1.33.15-2.2l.1-3v-3.77a37.47 37.47 0 0 0-.29-4.49 57.92 57.92 0 0 0-2-10.75 47.59 47.59 0 0 0-2.14-6 38.78 38.78 0 0 0-3.21-6.08 41.29 41.29 0 0 0-10.44-10.89 49.29 49.29 0 0 0-15-7.39 62.62 62.62 0 0 0-17.8-2.37 58.79 58.79 0 0 0-17.75 2.53 51.06 51.06 0 0 0-7.87 3.28 45.09 45.09 0 0 0-6.88 4.48 57.36 57.36 0 0 0-10.58 10.82 42.28 42.28 0 0 0-3.51 5.9 57.14 57.14 0 0 0-2.43 5.9 70.61 70.61 0 0 0-3.87 18.68v5.24c0 .6.06 1 .08 1.33a2.32 2.32 0 0 1 0 .46 1.76 1.76 0 0 0-.06-.46c-.05-.3-.07-.76-.1-1.33a50.88 50.88 0 0 1 0-5.24 69.26 69.26 0 0 1 3.75-18.83l2.42-5.9a44.58 44.58 0 0 1 3.53-5.95 57.57 57.57 0 0 1 10.61-10.94 46.26 46.26 0 0 1 6.89-4.53 50.72 50.72 0 0 1 8-3.29 58.56 58.56 0 0 1 17.88-2.61 63 63 0 0 1 17.9 2.38 49.69 49.69 0 0 1 15.06 7.47 46.85 46.85 0 0 1 5.9 5.18 36.22 36.22 0 0 1 4.58 5.82 40.74 40.74 0 0 1 3.23 6.13 45.54 45.54 0 0 1 2.11 6 56.66 56.66 0 0 1 1.89 10.81c.2 1.6.2 3.12.26 4.5V380l-.14 3-.2 2.2-.1 1.33v.53zm-162.54-83.75H1162l-6.4.12-21.14.52-21.14.42h-8.6a.25.25 0 0 1-.17 0h2.37l6.4-.12 21.14-.52 21.14-.42zm-8.85 10a95.15 95.15 0 0 1-11.7 0 103.79 103.79 0 0 1 11.7 0zm2.17-35.7c0 .1-7.23 3.1-16.23 6.75l-16.35 6.44c0-.1 7.22-3.12 16.22-6.76l16.36-6.43zm-14.72 2.25c0 .1-6.9 3.14-15.44 6.8l-15.58 6.5c0-.1 6.88-3.13 15.44-6.8l15.58-6.5zm93.34-3.54c0 .08-7.23 3.1-16.23 6.75l-16.35 6.43c0-.1 7.22-3.1 16.22-6.75zm-14.75 2.26c0 .1-6.9 3.15-15.44 6.8l-15.6 6.5c0-.08 6.9-3.14 15.44-6.8l15.58-6.5zm16.17 24.68c0 .1-14.45.26-32.25.36h-32.26c0-.1 14.44-.25 32.26-.35zm16 9.52c0 .1-4 .2-9 .26s-9 0-9-.1 4-.2 9-.26zm-276.6-4.92a1.8 1.8 0 0 1-.39.08l-1.13.16a10.47 10.47 0 0 0-1.78.25l-2.36.37-6.07 1.34-7.22 2.4a66.52 66.52 0 0 0-6.88 3.16 54.8 54.8 0 0 0-5.34 3.13l-2 1.34c-.55.4-1.08.73-1.48 1l-.92.67-.34.22a1.5 1.5 0 0 1 .29-.27l.9-.72 1.44-1.08a22 22 0 0 1 2-1.34l5.35-3.2a65.32 65.32 0 0 1 14.21-5.59l6.1-1.28 2.38-.34 1.8-.2 1.14-.1a.85.85 0 0 0 .33 0zm119.26-15.75a3.94 3.94 0 0 0-.67-.62 4.44 4.44 0 0 0-2.21-.89 9.6 9.6 0 0 0-3.57.38 27.35 27.35 0 0 0-11 5.68l-2.48 2.28a4.2 4.2 0 0 1 .56-.7 22.36 22.36 0 0 1 1.75-1.76 25.61 25.61 0 0 1 6.88-4.38 24.91 24.91 0 0 1 4.27-1.43 9.75 9.75 0 0 1 3.68-.32 4.29 4.29 0 0 1 2.25 1 3 3 0 0 1 .45.5c.1.14.13.2.12.22z" fill="#fff"/><path d="M1311.4 274.52a10.88 10.88 0 0 1-2.84.29 17.14 17.14 0 0 1-3.35-.41 30.78 30.78 0 0 1-4.25-1.34l-5-2.06-2.77-1.12-2.95-1.08a115 115 0 0 0-13.61-3.71 156.71 156.71 0 0 0-25.43-3.16l-4.43-.12h-3.34l-2.13.05 2.13-.12 3.34-.05 4.43.07a148.65 148.65 0 0 1 25.49 3.08 110.22 110.22 0 0 1 13.63 3.72l3 1.08 2.78 1.14 4.9 2.12a31 31 0 0 0 4.2 1.33 17.6 17.6 0 0 0 3.31.47 16.38 16.38 0 0 0 2.1-.07l.54-.07z" class="Q"/><path d="M64.35 302.1c-14.1-3.7-26.4-12.95-33.27-25a48.23 48.23 0 0 1-3.48-39.79c3.64-10.13 10.62-19 13.64-29.3 3.36-11.68 1.36-24.08-.76-36.02s-4.23-24.3-1.05-36 13.25-22.8 26.17-23.6c12-.8 23.08 7.53 28.08 17.7s5 21.93 3.87 33.14-3.44 22.34-2.72 33.56c1.44 22.68 15 44.06 13.45 66.74-.87 11.8-5.72 19.38-14.1 28.27-7.2 7.7-19.18 12.74-29.85 10.38" class="U"/><g class="Q"><path d="M68.6 414.56c-.14 0-.23-50.27-.23-112.3l.23-112.33c.14 0 .23 50.27.23 112.3zm-.7-151.63a16.33 16.33 0 0 1-2.06-1.83l-4.68-4.72-4.55-4.83a18.62 18.62 0 0 1-1.84-2 15.68 15.68 0 0 1 2.08 1.82l4.67 4.72 4.57 4.78a17 17 0 0 1 1.81 2.06z"/><path d="M106.76 405.24h-75.1v9.17h75.1zM69.34 215.82a15.1 15.1 0 0 0 4.53-2 12.75 12.75 0 0 0 5.73-9.53v-.2l.26.23a9.86 9.86 0 0 0-5.53 3 20.67 20.67 0 0 0-3.07 4.14l-1.66 3.1a6.79 6.79 0 0 1-.58 1.14 5.94 5.94 0 0 1 .43-1.2 25.64 25.64 0 0 1 1.47-3.14 19.8 19.8 0 0 1 3.07-4.26 10.1 10.1 0 0 1 5.76-3.2h.3v.46a12.8 12.8 0 0 1-5.9 9.84 11.47 11.47 0 0 1-3.45 1.48 6.52 6.52 0 0 1-1 .19h-.37z"/><path d="M69.34 215.82a29 29 0 0 1 3.13-3.89 28.6 28.6 0 0 1 3.5-3.63 29.8 29.8 0 0 1-3.15 3.93 29.86 29.86 0 0 1-3.48 3.59z"/></g><use xlink:href="#B" class="S"/><use xlink:href="#B"/><g class="Q"><path d="M115.78 342.8l-.18.14-.5.38-1.9 1.47a58 58 0 0 0-6.52 6l-4 4.62-4.4 5.5a69.46 69.46 0 0 0-4.37 6.4l-2 3.6-2 3.76a144.69 144.69 0 0 0-6.8 14.69 70.63 70.63 0 0 0-3.63 12.68 51.52 51.52 0 0 0-.86 8.85v3.27a.74.74 0 0 1 0-.21q0-.32 0-.63l-.04-2.4a48.67 48.67 0 0 1 .75-8.85 70.17 70.17 0 0 1 3.6-12.78 137.36 137.36 0 0 1 6.77-14.75l2-3.77 2-3.62a70.62 70.62 0 0 1 4.44-6.43l4.43-5.5s2.78-3.24 4.08-4.6a56.46 56.46 0 0 1 6.59-6l2-1.43.52-.36z"/><path d="M93.7 367.16a3.11 3.11 0 0 1-.11-.69c0-.44-.1-1.08-.14-1.86l-.23-6.2-.27-6.18-.16-1.86a2.66 2.66 0 0 1 0-.69 3.16 3.16 0 0 1 .14.68l.25 1.86c.18 1.58.3 3.77.37 6.2l.14 6.18v1.86a4.11 4.11 0 0 1 0 .7z"/><path d="M114.18 364.93a2.75 2.75 0 0 1-.81 0h-2.2c-1.87 0-4.44.23-7.28.52l-7.23 1-2.22.46a3.52 3.52 0 0 1-.79.13 4.29 4.29 0 0 1 .77-.24l2.17-.5c1.83-.4 4.35-.8 7.22-1.13 2.43-.27 4.86-.4 7.3-.44l2.22.05a7.9 7.9 0 0 1 .85.11zm-31.08 24a1.89 1.89 0 0 1-.11-.25l-.3-.77-1-2.8-2.82-9.42-2.76-9.44-.88-2.85-.24-.77a.67.67 0 0 1-.06-.28 1.42 1.42 0 0 1 .12.25l.3.77 1 2.82 2.83 9.42 2.75 9.44 1.1 3.62a.86.86 0 0 1 0 .27z"/><path d="M110.65 382.38l-.28.1-.8.2-3 .7-9.7 2.42-9.73 2.34-3 .6-.8.14h-.3a.9.9 0 0 1 .28-.08l.8-.2 2.95-.7 9.7-2.42 9.74-2.34 3-.62.8-.14z"/></g><path d="M65.73 387.25c15.14-10.9 18.27-30.9 17.36-48.75-.15-2.95.12-6.1-1.34-8.73s-4.82-4.32-7.45-3c-2.2 1.08-3.12 3.67-4.32 5.83a17.64 17.64 0 0 1-6.89 6.79c-1.9 1-4.23 1.65-6.1.65-2.62-1.38-3-4.92-3-7.87l-.17-16.58a26.88 26.88 0 0 0-1-8.78c-1-2.8-3.05-5.4-5.9-6.1s-6.3.93-6.9 3.85a28.55 28.55 0 0 0 0 3.7c-.06 1.23-.6 2.6-1.74 2.95s-2.36-.45-3.28-1.3c-3.1-3-5.23-6.76-7.26-10.56s-3.93-7.7-6.78-10.92-6.72-5.74-11-5.9-8.72 2.53-9.73 6.72S1.8 297.68 4.5 301a66.3 66.3 0 0 0 14 12.9 5.41 5.41 0 0 1 2.35 2.45c.7 2-1.16 3.93-3.1 4.64-2.2.8-4.6.6-6.88.9s-4.82 1.37-5.67 3.56c-1.16 3.05 1.43 6.2 3.94 8.23a56.81 56.81 0 0 0 17 9.4c2.2.76 4.5 1.43 6.3 2.95s2.95 4.15 1.87 6.25-3.7 2.8-6 2.44-4.35-1.6-6.55-2.36c-4.1-1.47-9.36-1.1-11.9 2.46-1.67 2.33-1.74 5.57-.86 8.3a21.62 21.62 0 0 0 4.62 7.25 57.22 57.22 0 0 0 24.64 16.72c9.5 3.1 18.32 3.83 27.64.25" class="S"/><g class="Q"><path d="M66.9 413.74c.3-3.93.07-6.2-.72-13.24a130.17 130.17 0 0 0-5.23-24.37 270 270 0 0 0-11-28.43l-3.36-7.3c-1.08-2.38-2.14-4.77-3.34-7a132.29 132.29 0 0 0-7.59-12.57c-2.62-3.94-5.24-7.5-7.7-10.82s-4.85-6.4-7.13-9.1a103 103 0 0 0-11.75-12c-1.47-1.3-2.65-2.27-3.5-3l-.86-.7a2.62 2.62 0 0 0-.34-.24 2.06 2.06 0 0 0 .3.29l4.3 3.7a111.9 111.9 0 0 1 11.52 12c2.24 2.7 4.6 5.77 7.05 9.15l7.64 10.8a132.2 132.2 0 0 1 7.55 12.56c1.18 2.26 2.24 4.6 3.32 7l3.26 7.3a274.06 274.06 0 0 1 11.06 28.35 132.47 132.47 0 0 1 5.36 24.25c.86 7 1.1 9.24.86 13.2"/><path d="M43.1 333.38a6.67 6.67 0 0 0 .27-1.27l.5-3.5c.36-2.95.74-7.06 1.13-11.6s.8-8.6 1.23-11.55l.5-3.5a6.88 6.88 0 0 0 .15-1.28 4.87 4.87 0 0 0-.37 1.25c-.2.8-.42 2-.7 3.5-.5 2.95-1 7-1.4 11.57l-1.3 15.1a5.47 5.47 0 0 0 0 1.28zm-38.24-6.45a9.66 9.66 0 0 0 1.52.15l4.13.33c3.5.33 8.32.93 13.6 1.83s10 2 13.45 2.8l4 1a7.49 7.49 0 0 0 1.49.34 9.17 9.17 0 0 0-1.43-.55c-1-.3-2.3-.73-4-1.18a132.3 132.3 0 0 0-13.45-3 139.35 139.35 0 0 0-13.67-1.67c-1.74-.13-3.18-.16-4.17-.16a6.44 6.44 0 0 0-1.52.09zm55.58 48.55a1.63 1.63 0 0 0 .25-.47l.63-1.38 2.17-5.18c1.74-4.36 4-10.55 6.4-17.38l6.24-17.44 2-5.23.48-1.47a1.63 1.63 0 0 0 .16-.5 2.09 2.09 0 0 0-.26.46l-.63 1.4c-.53 1.2-1.28 2.95-2.16 5.18-1.75 4.36-4 10.55-6.4 17.37l-6.27 17.46-2 5.23-.45 1.4a1.78 1.78 0 0 0-.14.5zM9.48 359.93a2.41 2.41 0 0 0 .5.21l1.48.45 5.45 1.67 18 5.67 18 5.5 5.5 1.5 1.5.36a1.91 1.91 0 0 0 .53.1 1.94 1.94 0 0 0-.5-.2l-1.48-.47-5.46-1.67-17.97-5.62-18-5.5-5.5-1.5-1.5-.38a2.35 2.35 0 0 0-.53-.09z"/></g><g class="S"><use xlink:href="#C"/><path d="M465.17 262.82c5.7-7.43 7.48-21.64 3.45-30.13a26.43 26.43 0 0 1-8.54 7.86 67 67 0 0 0 4.11-14.08l-7.34-5.67c-1 2.1-1.75 6.42-3.64 8.58 2-3.18 1.28-10.46-1.06-12.57a26.85 26.85 0 0 0-9.74-5.34 74.94 74.94 0 0 0-13.81-3.26c-3.1-.4-6.6-.4-9 1.64-3.36 3-2.6 8.62.25 12S427 227 430.96 229a78.22 78.22 0 0 1 34.21 33.81zm15.5-15.15c3.17-4.15 7.87-6.76 11.8-10.25s7.23-8.6 6-13.67l-7 2.16c7.64-4 11.4-14.16 8.24-22.2l-2.4.44c2.95-1.6 4.75-4.86 5.34-8.16a26.12 26.12 0 0 0-.62-10 77.86 77.86 0 0 0-5.31-16c-2.08 1.4-4.72 1.57-7.18 2.12s-5.1 1.85-5.75 4.28c-1.05 3.83 3.5 7.37 2.95 11.3a18 18 0 0 0-8.1-6.11c-.12 2.95-3.66 5.1-3.27 8a6.56 6.56 0 0 0 1.3 2.71l9.74 14.14a117.46 117.46 0 0 1-17.28-8.34c1 17.27 3.83 34.06 11.66 49.5"/></g><path d="M535.2 254.4l-.23.16-.72.43-2.8 1.64a86.8 86.8 0 0 0-9.64 7c-1 .8-2 1.7-3 2.63l-3.1 2.95a81.71 81.71 0 0 0-6.25 7l-2.95 4.13-1.48 2.16-1.4 2.3c-1 1.5-1.75 3.2-2.6 4.8-.46.8-.8 1.7-1.2 2.56l-1.16 2.62a94.69 94.69 0 0 0-5.78 20.76 109.93 109.93 0 0 0-1.38 17.57l.16 6.78.37 5.12.34 3.2c0 .3 0 .6.08.88a1.31 1.31 0 0 1 0 .28 1.4 1.4 0 0 1-.06-.28 7.53 7.53 0 0 0-.11-.83l-.44-3.2-.45-5.12-.23-6.78a108.73 108.73 0 0 1 1.28-17.75 93.35 93.35 0 0 1 5.78-20.86l1.18-2.62a24.72 24.72 0 0 1 1.21-2.55l2.67-4.85 1.4-2.3 1.5-2.16 3-4.15a79.84 79.84 0 0 1 6.32-7.05l3.12-2.95a38.73 38.73 0 0 1 3-2.56 79 79 0 0 1 9.75-6.89l2.86-1.57.74-.4zM475 347.05a1 1 0 0 1 0-.35v-1l-.14-3.93-.14-6.22-.06-8.26q0-10.75.34-21.5c.24-8.08.75-17 1.43-26.3s1.52-18.2 2.5-26.2l2.9-21.3 1.3-8.16 1.08-6.1.72-3.88.2-1a1.3 1.3 0 0 1 .08-.34 2 2 0 0 1 0 .35c0 .33-.1.66-.16 1l-.63 3.9-1 6.15-1.24 8.17-2.8 21.3c-.93 8-1.74 16.88-2.5 26.15s-1.15 18.2-1.48 26.26q-.4 10.74-.45 21.48v8.26l.06 6.22c.06 1.7 0 3 0 3.94v1a2 2 0 0 1 0 .35z" class="Q"/><use xlink:href="#C"/><use xlink:href="#D" class="S"/><use xlink:href="#D"/><path d="M413.72 285.4a13.42 13.42 0 0 1 3.09-1.33 21 21 0 0 1 9.09-.63 31.86 31.86 0 0 1 12.58 5 90.9 90.9 0 0 1 23.6 23.17 69.26 69.26 0 0 1 6.6 11.8 63 63 0 0 1 2.95 8.65l.68 3.05a.74.74 0 0 1 0 .21.48.48 0 0 1-.07-.21l-.17-.6-.62-2.4a66.84 66.84 0 0 0-9.76-20.3 91.77 91.77 0 0 0-23.46-23 31.79 31.79 0 0 0-12.38-5 21.2 21.2 0 0 0-9 .48 19.58 19.58 0 0 0-2.33.83l-.6.26a.65.65 0 0 1-.2 0zm-243-89c-.15-4 2.44-7.6 3.15-11.55.8-4.47-1.24-12.22-6.1-15a22.35 22.35 0 0 0-10.7-3.24 16.92 16.92 0 0 0-9.89 3.39c-2.58 2.08-4.23 5.08-5.8 8a12.57 12.57 0 0 0-1.82 4.87 4.34 4.34 0 0 0 2.25 4.37 7.48 7.48 0 0 0-3.12.22 2.39 2.39 0 0 0-1.25.91 2.55 2.55 0 0 0-.51 1.45c.08 1 1.43 1.9 2.27 1.26a13.29 13.29 0 0 0-5.18 10.82c0 1.37.3 2.8-.2 4.1-.93 2.4-3.87 3.1-6.1 4.36a7.85 7.85 0 0 0-2.63 2.23 7.76 7.76 0 0 0-1.43 3.13 5.29 5.29 0 0 0 2.95 5.72c1.32.5 3 .45 3.93 1.54s.54 2.76.5 4.2a7.6 7.6 0 0 0 14.16 4c1.47 2.95 5.5 4 8.58 2.76s5.14-4.2 6.1-7.38a27.13 27.13 0 0 0 .93-7.72 15.39 15.39 0 0 0 6.88.31c3.8-.8 7.3-3.8 7.73-7.65.5-5.3-4.48-9.76-4.7-15zm-10 2.2V184.4l4.3-3.86z" class="Q"/><path d="M134.25 221.24l-.08.1a1.22 1.22 0 0 1-.27.24 3.14 3.14 0 0 1-1.29.61 4.36 4.36 0 0 1-4.7-1.74 5.76 5.76 0 0 1-1-3.49 7 7 0 0 1 1.41-3.93 10.66 10.66 0 0 1 3.49-2.95l4.37-2.2a8.43 8.43 0 0 0 3.39-3.23 8.73 8.73 0 0 0 .72-4.37 31.62 31.62 0 0 1 0-4.13 7.28 7.28 0 0 1 1.22-3.42 7.69 7.69 0 0 1 4.17-3.06 5 5 0 0 1 1.88-.24 14.24 14.24 0 0 0-1.83.41 7.66 7.66 0 0 0-3.93 3.09 7.21 7.21 0 0 0-1.08 3.27 31 31 0 0 0 .06 4.09 9.22 9.22 0 0 1-.74 4.55 8.69 8.69 0 0 1-3.57 3.41c-1.47.88-3 1.45-4.35 2.2a10.42 10.42 0 0 0-3.39 2.83 6.63 6.63 0 0 0-1.37 3.69 5.58 5.58 0 0 0 .87 3.3 4.25 4.25 0 0 0 6.08 1z" class="U"/><path d="M109.4 378.62c0-.8 32.94-47.7 32.94-47.7l18.2 7-41.5 47.85z" class="V"/><path d="M109.4 378.62l-.3.37-5.65 7.38-7 4.82 9.32 18.07h10.33s-.75-2.5-5.7-3.77l-.33-9.93 8.92-9.83" class="S"/><path class="L" d="M96.4 391.2l9.4 18.07h10.33l-1.16-1.55-8.4-.48-8.66-17.08z" fill="#fff" opacity=".6"/><path d="M110.35 400.93c-.07.1-.66-.22-1.47-.2s-1.38.34-1.48.25.5-.7 1.46-.7a1.66 1.66 0 0 1 1.47.66zm-.17-2.43c-.1.08-.57-.54-1.38-.7s-1.48.22-1.55.1.1-.22.37-.37a1.92 1.92 0 0 1 1.27-.17 2 2 0 0 1 1.1.64c.2.26.26.47.2.5zm.08-3.14a4.76 4.76 0 0 0-1.18-.79c-.7-.25-1.38 0-1.43-.13s.1-.2.4-.3a1.78 1.78 0 0 1 2.11.74c.14.26.15.45.1.48zm2.77-2.46c-.12 0-.4-.54-1.05-1s-1.28-.5-1.28-.6.76-.3 1.54.23.9 1.38.8 1.38zm1.34-2.12a4.58 4.58 0 0 1-.88-1.08l-.86-1.24a3.19 3.19 0 0 1-.49-.86.91.91 0 0 1 .06-.63.75.75 0 0 1 .27-.26.65.65 0 0 1 .36-.07 1.88 1.88 0 0 1 1 .5 3 3 0 0 1 .62.72 3.37 3.37 0 0 1 .55 1.49 1.86 1.86 0 0 1-.24 1.4 8.74 8.74 0 0 0-.08-1.35 3.28 3.28 0 0 0-1.13-1.92 1.62 1.62 0 0 0-.72-.38h-.1a.12.12 0 0 0-.07.07.39.39 0 0 0 0 .3 3.65 3.65 0 0 0 .4.72l.8 1.3a4.2 4.2 0 0 1 .54 1.29zm.37.32a2 2 0 0 1 .55-1.18 2.68 2.68 0 0 1 1.44-.77 2.6 2.6 0 0 1 1.62.22.7.7 0 0 1 .13.17.74.74 0 0 1 0 .21.47.47 0 0 1-.12.32 1.18 1.18 0 0 1-.38.32 3.23 3.23 0 0 1-.72.42 4.61 4.61 0 0 1-1.36.39 2.24 2.24 0 0 1-1.28-.12c0-.05.5 0 1.22-.2a4.88 4.88 0 0 0 1.89-.84 1.2 1.2 0 0 0 .26-.24v-.08a.62.62 0 0 0-.3-.12 2.5 2.5 0 0 0-.38-.06 3 3 0 0 0-.74.05 2.77 2.77 0 0 0-1.12.57c-.5.48-.64.97-.7.92z" class="Q"/><path class="L" d="M103.44 392.06a1.22 1.22 0 1 0 0-2.44h0a1.22 1.22 0 0 0-1.057 1.83 1.22 1.22 0 0 0 1.057.61z" fill="#fff" opacity=".6"/><path d="M168.6 334.32l25.73 56.1h13.27l-17.9-57.88z" class="V"/><path d="M194.04 389.7l7.8 20.06 25-9.54c-1.07-2.33-15.8-2.18-15.8-2.18l-4.43-13z" class="S"/><g fill="#fff"><path class="M" d="M202.84 399.86a1.11 1.11 0 0 0-.4.67 1 1 0 0 0 .8 1.18 1.11 1.11 0 0 0 .76-.15 1.13 1.13 0 0 0 .43-.71 1.2 1.2 0 0 0-.15-.81 1.13 1.13 0 0 0-1.52-.12" opacity=".36"/><path class="L" d="M201.83 409.76l-.7-2 24.16-8.4s1.3.06 1.48.88z" opacity=".6"/></g><g class="Q"><path d="M211.32 397.73c.05.12-.54.4-1 1s-.57 1.26-.68 1.26-.23-.8.33-1.53 1.35-.83 1.35-.7zm3.1.06c.08.12-.37.53-.6 1.2s-.12 1.28-.24 1.3-.47-.62-.2-1.45.94-1.16 1-1.06zm2.64 2.58c-.1.07-.5-.47-.44-1.26s.52-1.28.62-1.18-.13.57-.17 1.22.12 1.18 0 1.23zm-7.06-5.5c0 .14-.63.2-1.3.5s-1.13.73-1.23.64.24-.7 1-1.06 1.5-.2 1.48-.08zm-1.73-2.72a2.69 2.69 0 0 1-1.25.47 5.18 5.18 0 0 1-1.47.09 4.93 4.93 0 0 1-.86-.1 1.41 1.41 0 0 1-.49-.16.49.49 0 0 1-.26-.25.56.56 0 0 1-.05-.36.75.75 0 0 1 .43-.49 1.65 1.65 0 0 1 .5-.11 4.22 4.22 0 0 1 .87 0 4.74 4.74 0 0 1 1.44.3c.78.3 1.16.7 1.12.74s-.47-.2-1.23-.43a5.58 5.58 0 0 0-1.35-.2 3.55 3.55 0 0 0-.8.06c-.3 0-.52.1-.54.25s0 .07.07.13a1.58 1.58 0 0 0 .37.11 7 7 0 0 0 .8.13 8.07 8.07 0 0 0 1.39 0 7.24 7.24 0 0 1 1.31-.18z"/><path d="M208.17 392.37a2.73 2.73 0 0 1-.79-1.08 4.24 4.24 0 0 1-.32-2.31 1.1 1.1 0 0 1 .16-.55 1 1 0 0 1 .4-.39.5.5 0 0 1 .34 0 .53.53 0 0 1 .31.17 1.68 1.68 0 0 1 .3.4 3.39 3.39 0 0 1 .33.87 3.17 3.17 0 0 1 0 1.5c-.23.87-.7 1.18-.7 1.13a12.05 12.05 0 0 0 .4-1.2 3 3 0 0 0-.06-1.33 2.31 2.31 0 0 0-.29-.71c-.14-.26-.33-.43-.4-.36a1.08 1.08 0 0 0-.29.57 5.34 5.34 0 0 0 0 .8 4.46 4.46 0 0 0 .24 1.35c.14.68.46 1.1.4 1.14z"/></g><path d="M202.3 282.2l.2.25 1.25.24a5.94 5.94 0 0 0 2.06 0 9 9 0 0 0 2.47-.71c.7-.4 1.5.27 1.2.92s-2.17 1.74-4.7 2 .76 2.46 2 3.32 4.76 3.64 4.8 4.2c0 .88-.88 1-2 .17s-4.87-3.22-5.28-2.6 5.72 4.86 5.72 4.86 1.46.68 1 1.45c-.8 1.38-7-3.58-7.57-4.06-.4-.33-.86.35-.42.7s6.2 4.06 5.4 5.48c-.63 1.08-5.12-4-6.75-4.13s3.8 3.54 3.17 4.55c-.25.37-.47.63-3.3-1.92a86.66 86.66 0 0 1-6.42-7.12z" class="V"/><path d="M172.13 214.8l9.64 48.9 21.56 17.93-8.4 10.2-29.5-23.53-6-48.84z" class="S"/><path class="N" d="M172.13 214.8l9.64 48.9 21.56 17.93-8.4 10.2-29.5-23.53-6-48.84z" opacity=".3"/><path d="M174.37 261.27l-1.28-.2c.4-5.1 1.16-10.82 3.64-14.6 2.1-3.14 2.26-5.5 2.1-7 .52-5.5-3.9-8.95-4.53-14.52-.7-8.1-.67-12.55-4.17-13.46l-16.7-3s-19.4-2.8-14.9 21.22l8.65 27.33 2.85 1.85c-3.93 2.95-12.78 11.26-15.5 28.52-3.5 22.45-14.83 71.8-14.83 71.8s16.58-7.73 31.37 0 31 10.88 40.8 6.3 9.83-6.3 9.83-6.3z" class="S"/><path d="M145.28 265.2s0 .07-.13.2l-.42.54c-.4.48-.88 1.2-1.54 2.17a32.19 32.19 0 0 0-3.87 8.85 55.86 55.86 0 0 0-1.72 14.28c-.07 5.43.4 11.4.4 17.7a67.06 67.06 0 0 1-.58 9.18 64.75 64.75 0 0 1-1.75 8.39 98 98 0 0 1-5 13.59c-1.67 3.78-3.17 6.76-4.2 8.85l-1.2 2.36c-.14.25-.23.44-.32.6l-.13.2a.92.92 0 0 1 .09-.23l.27-.63 1.14-2.4 4.06-8.85a102.2 102.2 0 0 0 4.91-13.57 63.44 63.44 0 0 0 2.29-17.44c0-6.28-.45-12.22-.35-17.7a54.48 54.48 0 0 1 1.78-14.36 30.93 30.93 0 0 1 4-8.85 18.89 18.89 0 0 1 2.25-2.86z" class="Q"/><path d="M197.9 344.47a10.64 10.64 0 0 0-4.46-.07 16.75 16.75 0 0 0-4.92 1.9 65.34 65.34 0 0 0-5.83 3.93 21.11 21.11 0 0 1-7.67 3.75 13.88 13.88 0 0 1-13.59-5.19 9.55 9.55 0 0 1-2.07-5.21 5.8 5.8 0 0 1 .49-2.88 4.6 4.6 0 0 1 2-2.17 4.8 4.8 0 0 1 2.95-.51 4.72 4.72 0 0 1 3.94 4.22 5.49 5.49 0 0 1-.65 2.95 8.19 8.19 0 0 1-4.37 3.74 12.57 12.57 0 0 1-5.54.69 18.91 18.91 0 0 1-5.23-1.24 61.33 61.33 0 0 1-8.65-4.62 34.09 34.09 0 0 0-7.67-3.63 14.21 14.21 0 0 0-6.88-.5 10.76 10.76 0 0 0-4.72 2.21 8.13 8.13 0 0 0-2.1 2.56c-.36.67-.45 1.08-.5 1.06a1.61 1.61 0 0 1 .09-.29 4.81 4.81 0 0 1 .32-.82 8 8 0 0 1 2.07-2.62 10.81 10.81 0 0 1 4.78-2.3 14.32 14.32 0 0 1 7 .42 36.55 36.55 0 0 1 7.77 3.6 59 59 0 0 0 8.6 4.58 19.29 19.29 0 0 0 5.08 1.2 12.26 12.26 0 0 0 5.34-.68 7.7 7.7 0 0 0 4.15-3.48 5 5 0 0 0 .6-2.72 4.08 4.08 0 0 0-1.08-2.51 4.23 4.23 0 0 0-2.43-1.31 4.33 4.33 0 0 0-2.69.47 4.12 4.12 0 0 0-1.85 2 5.56 5.56 0 0 0-.46 2.61 9.44 9.44 0 0 0 2 4.92 13.18 13.18 0 0 0 3.88 3.4 13.41 13.41 0 0 0 9.31 1.64 20.76 20.76 0 0 0 7.59-3.64 63 63 0 0 1 5.9-3.93 16.89 16.89 0 0 1 5-1.85 9.48 9.48 0 0 1 3.36 0 5.31 5.31 0 0 1 1.12.31z" class="R"/><path class="O" d="M137.18 309.13c4.92-.43 10.13-1.24 14-4.36a19.92 19.92 0 0 0 6.11-9.41 33.34 33.34 0 0 0 1.08-17.1c-.32-1.63-.75-3.42.1-4.84s2.85-2 4.62-2c2.2 0 4.43.4 6.62.34s4.57-.75 5.9-2.53L152.8 267c-2-.2-4.13-.36-5.8.72s-2.45 3.25-3.1 5.2l-5.55 17.44a49.8 49.8 0 0 0-2.28 9.23 16.37 16.37 0 0 0 1.4 9.28" opacity=".1"/><path d="M133.16 262.26c-4.62 3.76-9.7 10.37-13.18 15.2s-5.67 10.88-4.72 16.72a18.62 18.62 0 0 0 13.67 14.45 21.38 21.38 0 0 0 19.48-5.34 25.24 25.24 0 0 0 7.62-19c-.24-9.08-4.92-17.7-4.35-26.82a105.83 105.83 0 0 1 2.84-18.31 41.79 41.79 0 0 0-4.63-28.58 6.8 6.8 0 0 0-2.84-3c-1.26-.57-.4.34-.9 1.63s.6 2.85 1.5 4c3.5 4.57 4.85 10.53 4.72 16.3s-1.57 11.4-3.14 16.94c-1.23 4.3-2.58 8.68-5.24 12.3s-6.4 3.54-10.82 3.35" class="U"/><g class="Q"><path d="M145.83 265.6a1 1 0 0 1-.07.39 10.94 10.94 0 0 1-.34 1.08 23.82 23.82 0 0 1-1.75 3.85 26.74 26.74 0 0 1-9.59 9.94 13.31 13.31 0 0 1-7.28 2.29 6.48 6.48 0 0 1-5.41-2.95 4.88 4.88 0 0 1-.37-4.15 3.37 3.37 0 0 1 .59-1c.2-.2.28-.3.3-.28a6 6 0 0 0-.72 1.34 4.76 4.76 0 0 0 .47 3.93 6.24 6.24 0 0 0 2.24 2 6.08 6.08 0 0 0 2.95.7 13 13 0 0 0 7.05-2.26 27.64 27.64 0 0 0 9.56-9.72 29.52 29.52 0 0 0 1.83-3.75q.24-.72.54-1.4z"/><path d="M126.9 280.8a2.44 2.44 0 0 1 .77-.31 4.08 4.08 0 0 1 1-.15 1.85 1.85 0 0 1 1.26.46 2 2 0 0 1 .59 1.53 3.14 3.14 0 0 1-.62 1.74 9.69 9.69 0 0 1-1.33 1.46 5.54 5.54 0 0 1-1.74 1.22 2.73 2.73 0 0 1-1.13.2 2.63 2.63 0 0 1-1.09-.28 1.92 1.92 0 0 1-1-1.74 3.6 3.6 0 0 1 .49-1.75 6.21 6.21 0 0 1 .91-1.26 5.68 5.68 0 0 1 1.85-1.28 2 2 0 0 1 .79-.23 7.94 7.94 0 0 0-2.41 1.74 4.66 4.66 0 0 0-1.24 2.82 1.6 1.6 0 0 0 .24.82 1.67 1.67 0 0 0 .64.57 2.23 2.23 0 0 0 .91.2 2.25 2.25 0 0 0 .93-.16 4.89 4.89 0 0 0 1.64-1.12 10 10 0 0 0 1.23-1.44 2.59 2.59 0 0 0 .58-1.5 1.57 1.57 0 0 0-.08-.68 1.89 1.89 0 0 0-.35-.6 2.13 2.13 0 0 0-1-.42 2.17 2.17 0 0 0-1 .05 3.59 3.59 0 0 1-.8.11zm16.9 26a7.52 7.52 0 0 0 .27-1.15 5.86 5.86 0 0 0-.3-3.13 5.65 5.65 0 0 0-1.13-1.85 5.4 5.4 0 0 0-2.08-1.34 13.84 13.84 0 0 0-5.76-.41 34.76 34.76 0 0 0-10.35 2.45l-3 1.34a6.4 6.4 0 0 1-1.09.52 6.62 6.62 0 0 1 1-.67 31.25 31.25 0 0 1 3-1.48 32.93 32.93 0 0 1 10.42-2.62 13.86 13.86 0 0 1 5.9.49 5.45 5.45 0 0 1 2.2 1.46 5.61 5.61 0 0 1 1.16 2 5.78 5.78 0 0 1 .17 3.27 3.92 3.92 0 0 1-.28.88c-.05.2-.1.3-.12.27z"/><path d="M144.6 296.3a4.49 4.49 0 0 1-3.29 3c0-.12.9-.6 1.74-1.4s1.37-1.66 1.55-1.6zm1.22 1.94a2.73 2.73 0 0 1-1.6 1.47 2.5 2.5 0 0 1-1.06.34 2.45 2.45 0 0 1-1.11-.14c0-.14 1-.14 2-.6s1.72-1.15 1.8-1.06zm-26.94 2.24c.12 0 .46.52 1.06 1s1.2.8 1.18.9a1.94 1.94 0 0 1-1.46-.58c-.7-.57-.9-1.3-.77-1.34z"/></g><path d="M136.53 286.93a15.64 15.64 0 0 1 2.73-4.31 7.15 7.15 0 0 1-1.15 2.27 7 7 0 0 1-1.58 2.04zm10.4 3.5c-.08.1-.87-.5-1.58-1.52a3.75 3.75 0 0 1-.87-2 13.57 13.57 0 0 1 1.23 1.74 10 10 0 0 1 1.23 1.81zm2.7-11.2c.08.1-.56.7-1.42 1.32a5 5 0 0 1-1.69 1c-.08-.07.57-.7 1.43-1.32s1.6-1.08 1.67-1zm-1.52-6.64c-.12 0-.3-.62-.43-1.42a3.32 3.32 0 0 1 0-1.47 2.85 2.85 0 0 1 .43 1.41c.12.78.12 1.47 0 1.47zm4.82 16.45a7.77 7.77 0 0 1 .72-3.58 4 4 0 0 1-.13 1.84 4 4 0 0 1-.59 1.74zm-18.3 7.28c-.06.1-.7-.2-1.28-.8s-.88-1.24-.78-1.3.55.4 1.12 1 1.06 1 1 1.1zm-11.36 1.38a4.53 4.53 0 0 1-1.74.87 4.27 4.27 0 0 1-2 .42 8.17 8.17 0 0 1 3.67-1.29zm-2.2-5c-.1.08-.88-.62-1.67-1.54a6.06 6.06 0 0 1-1.33-1.85c.1-.08.87.6 1.67 1.54a6.55 6.55 0 0 1 1.33 1.89zm-1.94-9.3c-.1-.08.3-.65.87-1.28s1.1-1.06 1.18-1-.3.66-.9 1.27-1.08 1.06-1.18 1zm10.82 4.4c.07.1-.72.62-1.74 1.12a4.62 4.62 0 0 1-2 .73 5.11 5.11 0 0 1 1.75-1.13 4.94 4.94 0 0 1 1.99-.68zm-1.8-11.1a7.28 7.28 0 0 1-.7-4.35 21.33 21.33 0 0 1 .7 4.39zm7.36-3a3.65 3.65 0 0 1-.88-1.41c-.37-.83-.55-1.54-.43-1.58s.5.6.9 1.42.54 1.53.43 1.57zm5.54-5.65a2.9 2.9 0 0 1-1.91.79 3 3 0 0 1-2.07-.21 13.07 13.07 0 0 1 2-.23 13.63 13.63 0 0 1 1.98-.35zm7.18 31.37c-.1 0 .1-.8.6-1.62s1.08-1.34 1.18-1.26-.3.7-.78 1.5-.9 1.44-1 1.38zm-17.63 7.22a3.6 3.6 0 0 1-1.57-.59c-.82-.44-1.4-.87-1.33-1s.76.15 1.57.6 1.33.88 1.33 1zm5-.95c-.1-.08.23-.63.6-1.33s.6-1.27.74-1.24 0 .7-.34 1.46-.9 1.2-1 1.1zm15.77-58.18c.1.06-.24.72-.8 1.47s-1.06 1.28-1.16 1.2.25-.74.8-1.48 1-1.3 1.1-1.2zm1-4.8c-.13 0-.1-.73.06-1.58a3.46 3.46 0 0 1 .5-1.51 3.46 3.46 0 0 1-.06 1.59c-.27.86-.42 1.53-.57 1.5zm1.3-10c-.12 0-.1-.5.06-1s.4-1 .5-.9.1.5-.07 1-.34.9-.5.9zm0-6.3c-.12 0-.22-.25-.22-.56s.1-.56.22-.56.23.25.23.56-.2.6-.3.6z" class="R"/><path d="M169.38 174.42v-.6c-8-2.38-17.45-2.28-22.3 4.36l3.6 32.08c.24 4.5 3.94 10.72 8.72 14.5a4.92 4.92 0 0 0 7.87-4.37l-1-9.7a2.2 2.2 0 0 0-.17-.67v-.2l-.74-8.5s5.25-1.4 5.67-8.46c.35-6.74-1.66-18.45-1.66-18.45z" class="V"/><g class="Q"><path d="M169.36 182.93a1 1 0 0 1 0 .34 1.14 1.14 0 0 1-.16.31.73.73 0 0 1-.27.22.76.76 0 0 1-.32.11.89.89 0 0 1-.65-.16.79.79 0 0 1-.34-.56.65.65 0 0 1 0-.34.75.75 0 0 1 .15-.31.78.78 0 0 1 .26-.22.91.91 0 0 1 1 0 .85.85 0 0 1 .35.61z"/><path d="M169.36 181.93c-.1.14-.83-.3-1.74-.2s-1.64.66-1.75.54 0-.27.32-.52a2.4 2.4 0 0 1 1.37-.57 2.37 2.37 0 0 1 1.43.3c.3.2.46.4.37.45zm-10 2.3a1 1 0 0 1 0 .34 1.08 1.08 0 0 1-.16.3.67.67 0 0 1-.27.23.76.76 0 0 1-.32.11.86.86 0 0 1-1-.72.91.91 0 0 1 0-.33.94.94 0 0 1 .15-.32.62.62 0 0 1 .27-.21.65.65 0 0 1 .32-.11.88.88 0 0 1 .65.14.9.9 0 0 1 .35.58z"/><path d="M159.35 183.28c-.1.13-.83-.3-1.75-.2s-1.6.64-1.75.55 0-.28.33-.53a2.43 2.43 0 0 1 2.8-.26c.37.2.44.4.37.45zm4.22 6.77a7.41 7.41 0 0 1 1.53-.43c.24 0 .47-.1.5-.3a1.21 1.21 0 0 0-.24-.71l-.88-1.8a33.85 33.85 0 0 1-2.12-4.72 30.32 30.32 0 0 1 2.49 4.54l.9 1.8a1.49 1.49 0 0 1 .21 1 .56.56 0 0 1-.13.24.6.6 0 0 1-.23.16 1.43 1.43 0 0 1-.41.09 5.45 5.45 0 0 1-1.61.12z"/></g><path d="M165.34 201.34a17.79 17.79 0 0 1-9.59-1.57c0 0 2.73 4.56 9.6 3.22zm-2-8.9a1.88 1.88 0 0 0-.75-.46 2.08 2.08 0 0 0-.86 0 1.61 1.61 0 0 0-1 .69 1.06 1.06 0 0 0 0 1.15 1.13 1.13 0 0 0 .62.3 1.19 1.19 0 0 0 .67-.1 3.53 3.53 0 0 0 1.15-.88 1 1 0 0 0 .26-.31.29.29 0 0 0 0-.35" fill="#eb996e"/><path d="M160.82 191c.16 0 .26 1 1.22 1.67a4.59 4.59 0 0 0 2.08.56c0 .14-.22.23-.68.3a2.62 2.62 0 0 1-1.75-.42 2.34 2.34 0 0 1-1-1.41c0-.43.05-.7.13-.7z" class="Q"/><path d="M168.5 199.4a4.59 4.59 0 0 1 .17.48l.36 1.38a16.74 16.74 0 0 1 .5 5.23 29.53 29.53 0 0 1-.35 3.63 11.8 11.8 0 0 1-.53 2l-1 2a5.62 5.62 0 0 1-1.47 1.82 4 4 0 0 1-2.39.56 8.71 8.71 0 0 1-2.48-.37 10.18 10.18 0 0 1-2.36-1 9.6 9.6 0 0 1-3.64-3.49 6.59 6.59 0 0 1-.73-2.3l-.5-2.2-.87-4.22-.6-3.6-.83-5.24-.2-1.42a2.17 2.17 0 0 1 0-.51 2.09 2.09 0 0 1 .13.49l.3 1.4 1 5.23.65 3.6.9 4.1.52 2.2a6.24 6.24 0 0 0 .7 2.19 9.2 9.2 0 0 0 3.49 3.29 9.85 9.85 0 0 0 2.26 1 8.13 8.13 0 0 0 2.35.37 3.53 3.53 0 0 0 2.13-.48 5.41 5.41 0 0 0 1.38-1.67l1-1.86a9.31 9.31 0 0 0 .54-1.92 31.36 31.36 0 0 0 .39-3.61 17.66 17.66 0 0 0-.36-5.23l-.3-1.42a1.82 1.82 0 0 1-.11-.46z" class="R"/><path d="M186.54 249.85l-2.6 22.42h14.36l2-22.37z" class="Q"/><g class="R"><path d="M191.26 272.93v1.1a13.44 13.44 0 0 0 .19 3 24.21 24.21 0 0 1 .61 4.86 13 13 0 0 1-1.43 6.31 8.49 8.49 0 0 1-2.51 2.85 7.79 7.79 0 0 1-3.93 1.3 5.82 5.82 0 0 1-4.18-1.39 8.12 8.12 0 0 1-2.19-4.13l-1.08-4.72a15.67 15.67 0 0 0-2.31-4.42c-2-2.78-4.6-5.36-6-8.85a28.87 28.87 0 0 1-1.68-10.54c0-3.44.12-6.78-.06-9.93-.3-6.3-1.35-11.92-2-16.72a78.1 78.1 0 0 1-.77-11.34c0-1 0-2 .12-3.07 0-.34.05-.6.06-.8a1.22 1.22 0 0 1 0-.27v4.16a84.94 84.94 0 0 0 .93 11.27c.64 4.74 1.7 10.37 2 16.72.2 3.17.07 6.5.1 9.93a27.43 27.43 0 0 0 1.66 10.39c1.38 3.34 3.94 5.9 5.9 8.72a15.54 15.54 0 0 1 2.36 4.53c.5 1.62.7 3.23 1.1 4.75a7.74 7.74 0 0 0 2 3.94 5.48 5.48 0 0 0 3.94 1.3 7.28 7.28 0 0 0 3.72-1.22 7.78 7.78 0 0 0 2.42-2.71 13 13 0 0 0 1.47-6.08 26 26 0 0 0-.52-4.82 12.22 12.22 0 0 1-.12-3.08 5.29 5.29 0 0 1 .09-.8z"/><path d="M190.6 272.26l-.14 1.74a.57.57 0 0 0 0 .26.53.53 0 0 0 .13.23.83.83 0 0 0 .21.16.62.62 0 0 0 .27 0 .64.64 0 0 0 .42-.15.74.74 0 0 0 .23-.4l.3-2z"/></g><path d="M147.08 209.15c3.5.13 3.25 3.42 3.64 6.9a74.76 74.76 0 0 1 .23 12c-.6 11.8-5.9 23.13-5.9 23.13l33.94 5.08-1.24 13.08-43-4.66a10.23 10.23 0 0 1-9-8.67 10 10 0 0 1 .34-4.42c3.83-12.47 10.1-30.5 11.5-33.44 1.9-4.05 4.9-9.17 9.46-9z" class="S"/><path d="M133.16 264.3h.2l.64.1 2.5.36 9.3 1.2c7.93 1 19.08 2.07 31.9 3.05l-.2.17 1.24-13 .16.2-33.92-5.12h-.2l.05-.17c2.2-6.83 3.93-12.5 4.92-16.46l1.08-4.62.25-1.22a2.94 2.94 0 0 1 .1-.41 2 2 0 0 1-.05.42 8.72 8.72 0 0 1-.19 1.23c-.2 1.08-.53 2.62-1 4.64-1 3.94-2.6 9.66-4.78 16.5l-.12-.2 34.15 5v.18l-1.26 13v.2h-.18c-12.78-1-24-2.16-31.9-3.17-3.93-.5-7.12-1-9.3-1.32l-2.48-.43-.64-.13z" class="Q"/><path d="M185.9 254.93l-.33 2.7 10.13.24s0 3.15-1 4.07c0 0 1 1.87-.1 2.95s-1.67.73-1.67.73.4 2.08-.62 2.62-14.58-.3-14.58-.3l.9-8.72 3-.27c1-2.85 2.8-3.9 4.26-4z" class="V"/><path d="M152.3 227.32c2.82-1.1-2.55-10.26-1.18-14.75a47.67 47.67 0 0 0 2-16.57c-.24-2.52-1.18-5-.86-7.53.3-2.95.07-4.9 2.72-6.4s8.4-3.24 7.93-9.6a25.59 25.59 0 0 0 4.74 7c.88.9 3.76 1.2 4.36.53s-1.83-6.28-2.26-7.06a5.43 5.43 0 0 0-2-1.75c-4.28-2.56-9.6-3.74-14.37-2.22s-8.62 6.16-8.36 11.15c.14 2.62 1.3 5.15.86 7.72-.35 2.27-1.9 4.13-3.05 6.1s-2 4.52-.78 6.52c.5.9 1.35 1.55 1.54 2.54s-.35 2-.34 3c0 1.3 2.26 1.35 2.4 2.65 1.42 13.15 5.23 15.52 6.63 18.7z" class="Q"/><g class="U"><path d="M162.47 172.7v.3a5.32 5.32 0 0 1-.14.78 9.11 9.11 0 0 1-1.17 2.72 9.79 9.79 0 0 1-3.12 3.09 11.44 11.44 0 0 1-2.36 1.08 6.7 6.7 0 0 0-2.35 1.23c-1.34 1.23-2 3-3.28 4.17a6.89 6.89 0 0 1-4 1.79 6.57 6.57 0 0 1-2.95-.33 5.4 5.4 0 0 1-.74-.33c-.16-.1-.24-.14-.23-.16s.37.14 1 .32a6.86 6.86 0 0 0 2.85.18 6.72 6.72 0 0 0 3.76-1.74c1.18-1.08 1.8-2.85 3.26-4.2a7.2 7.2 0 0 1 2.49-1.32 11.45 11.45 0 0 0 2.31-1 9.94 9.94 0 0 0 3.07-3 12.79 12.79 0 0 0 1.62-3.64z"/><path d="M139.6 182.34a3 3 0 0 0 .43 1 3.71 3.71 0 0 0 1.19.85 3.33 3.33 0 0 0 1.43.26 5.11 5.11 0 0 0 3.87-1.79 23.62 23.62 0 0 0 1.51-2.19 5.57 5.57 0 0 1 2.09-2.11 6.47 6.47 0 0 1 3-.46 11.48 11.48 0 0 0 2.62-.18 10.58 10.58 0 0 0 4.06-1.75 13.53 13.53 0 0 0 2.85-3 .54.54 0 0 1-.11.26 5.41 5.41 0 0 1-.42.74 9.65 9.65 0 0 1-2.12 2.25 10.49 10.49 0 0 1-4.17 2 12.48 12.48 0 0 1-2.73.22 6 6 0 0 0-2.72.43 5.22 5.22 0 0 0-2 2 19 19 0 0 1-1.55 2.24 5.43 5.43 0 0 1-4.19 1.82 3.13 3.13 0 0 1-1.54-.34 3.56 3.56 0 0 1-1.23-1 2 2 0 0 1-.31-.81.59.59 0 0 1 .06-.37z"/></g><defs ><path id="B" d="M79.93 395c-7.67-6.3-8.72-17-7.62-26.42.16-1.58.13-3.27 1-4.6s2.7-2.14 4-1.36c1.13.64 1.54 2 2.1 3.24a9.07 9.07 0 0 0 3.43 3.83 3.42 3.42 0 0 0 1.53.68 3.67 3.67 0 0 0 1.68-.13c1.42-.65 1.74-2.53 1.84-4.1l.64-8.8a14.83 14.83 0 0 1 .87-4.62 4.85 4.85 0 0 1 3.32-3.09 2.94 2.94 0 0 1 3.49 2.26 11.83 11.83 0 0 1-.1 2 1.67 1.67 0 0 0 .87 1.66 1.81 1.81 0 0 0 1-.06 2.06 2.06 0 0 0 .8-.52 20.81 20.81 0 0 0 4.19-5.37 29.64 29.64 0 0 1 3.93-5.57 8.56 8.56 0 0 1 6-2.79 5.11 5.11 0 0 1 4.92 3.93c.4 2.27-1.08 4.36-2.62 6.1a35.57 35.57 0 0 1-7.87 6.38 3 3 0 0 0-1.32 1.22c-.44 1 .5 2.14 1.5 2.56a18.63 18.63 0 0 0 3.63.7 3.6 3.6 0 0 1 1.72.66 3.47 3.47 0 0 1 1.15 1.42c.52 1.65-1 3.25-2.36 4.23a30.57 30.57 0 0 1-9.3 4.45 10 10 0 0 0-3.43 1.33 2.92 2.92 0 0 0-1.19 3.26 2.93 2.93 0 0 0 1.31 1.25 3.06 3.06 0 0 0 1.81.24 19.6 19.6 0 0 0 3.55-1.05c2.23-.64 5-.27 6.24 1.75a4.93 4.93 0 0 1 .61 2.19 5 5 0 0 1-.42 2.25 11.47 11.47 0 0 1-2.7 3.7 30.47 30.47 0 0 1-13.59 8c-5.14 1.33-9.83 1.44-14.65-.77"/><path id="C" d="M497.33 297.27c-5.7-7.42-7.47-21.63-3.44-30.13a26.71 26.71 0 0 0 8.55 7.87 68 68 0 0 1-4.13-14.08l7.36-5.68c1 2.1 1.74 6.43 3.64 8.58-2-3.18-1.28-10.42 1.06-12.57a26.52 26.52 0 0 1 9.74-5.33 73.09 73.09 0 0 1 13.76-3.27c3.1-.4 6.6-.4 9 1.64 3.35 3 2.62 8.6-.25 12s-7.14 5.16-11.12 7.16a78.28 78.28 0 0 0-34.12 33.79"/><path id="D" d="M437.38 287.93c-3 1.26-5.38 3.72-8.13 5.55s-6.4 3-9.26 1.42l2.46-3.93a11.58 11.58 0 0 1-14.85 1.42l.65-1.4a7.3 7.3 0 0 1-2.7 1.62 7.17 7.17 0 0 1-3.12.32 16.65 16.65 0 0 1-6-2 48 48 0 0 1-8.85-5.8c1.18-1 1.74-2.62 2.45-4s4.23-3.37 4.23-3.37l5.68 4.17a11.41 11.41 0 0 1-2.41-5.9c1.82.4 3.7-1.4 5.43-.7.6.24 2.67.07 3.17.48a23.76 23.76 0 0 1 4.85 4.91c-.43-4-.77-3.93-1.85-7.86 10.33 3.38 20.06 7.8 28.22 15"/></defs></svg>